<svg xmlns="http://www.w3.org/2000/svg" xmlns:xlink="http://www.w3.org/1999/xlink" viewBox="0 0 729.62 455.42"><defs><clipPath id="clip-path"><rect x="28.56" y="59.6" width="84.41" height="9.21" fill="none"/></clipPath><clipPath id="clip-path-2"><rect x="60.16" y="11.84" width="11.21" height="11.44" fill="none"/></clipPath><clipPath id="clip-path-3"><rect x="29.02" y="183.8" width="102.42" height="9.1" fill="none"/></clipPath><clipPath id="clip-path-4"><rect x="409.37" y="95.68" width="148.1" height="222.4" fill="none"/></clipPath><clipPath id="clip-path-5"><rect x="409.37" y="147.79" width="92.15" height="170.3" fill="none"/></clipPath><clipPath id="clip-path-6"><rect x="607.47" y="111.73" width="101.52" height="144.8" fill="none"/></clipPath><clipPath id="clip-path-7"><rect x="206.34" y="291.99" width="75.95" height="85.9" fill="none"/></clipPath><clipPath id="clip-path-8"><rect x="194.48" y="266.47" width="171.74" height="11.36" fill="none"/></clipPath><clipPath id="clip-path-9"><rect x="272.57" y="273.71" width="5.85" height="105.31" fill="none"/></clipPath></defs><title>bgbg2</title><g id="Layer_2" data-name="Layer 2"><g id="Shadow"><g opacity="0.2"><path d="M340.27,376.36c-21.07.06-42.14.57-63.17,2.91-7.93.88-15.69,2.82-23.64,3.6-15.87,1.56-31.47,4.48-47.4,5.82-12.83,1.08-25.71,1.72-38.5,3.1a135.51,135.51,0,0,1-37.17-1.14c-8.81-1.58-17.66-2.46-26.32-5-9.69-2.83-20.22-4.86-30.31-4.78-14.4.1-28.42.12-42.2,5.12-4.84,1.75-10.76,4.64-14.43,8.32-8.41,8.43-9.55,29.47-1.15,38.21C30.11,447.25,60.29,453,80.11,453.3c21.72.3,42.82-1.31,64.57-2.26,20.21-.88,40.37-2.13,60.61-2.09,41.35.09,82.7,0,124-2.76,38.78-2.59,77.65-1.7,116.51-1.7,39.85,0,79.43.31,119,5.61,17.24,2.31,34.8,3.12,52.12,4.73,15.52,1.45,30.42,0,45.88-1.37a109.5,109.5,0,0,0,37.66-10.09c9.33-4.46,26-18.31,28.83-29,8-29.84-113.06-29.12-131.65-29.06-20.8.08-41.76.76-62.54,0-8.74-.33-17.35-2-25.89-3.91s-17.06-1.39-25.68-2.17c-35.94-3.27-72-2.79-108-2.79C363.74,376.43,352,376.33,340.27,376.36Z" fill="#d67086"/></g></g><g id="object"><path d="M33.83,160.24c1.76-1,4.47-1.34,6.62-2.5,1.09-.59,1-3.08,3.34-1.93.85.42,2.28,1.66,3.9,2.44,2.36,1.15,5.85,1.37,8.85,1a307.23,307.23,0,0,1,35.56-3,3.83,3.83,0,0,0,2-.35c1.08-.63,1.32-1.78,1.68-2.9a85.09,85.09,0,0,1,6.12-15.1c2.35-4.3,5-8.35,9.1-11.18s9.17-4,13.68-2.08c3.38,1.42,6,4.09,6.45,7.78,1,9.14-7.84,15.13-13.34,21-5.2,5.54-9.65,10.25-15,15.28a6.23,6.23,0,0,1-2.18,1.51,6.5,6.5,0,0,1-2.78.15c-11.85-1.2-23.37-2.67-35.19-1.29-3.25.38-6.1-.55-9.2.21-2,.48-3.14,2.29-5,3a15.86,15.86,0,0,1-6,1.46c-4.38-.09-9-4.17-10.1-8.48-.71-2.81.08-4.19,1.54-5.05" fill="#efbfa5"/><path d="M117.91,150.13c-6.46-3.12-13.33-5.28-19.57-8.91,2.86-5.46,11.72-27.93,13.14-30.59C116.89,100.49,118.16,96,124.84,91c14.25-10.72,29.24-1.46,27.11,15.35-2.31,18.25-13.51,33.11-25.38,46.34a2.07,2.07,0,0,1-1,.62,2.39,2.39,0,0,1-1.49-.33c-2-1-4.12-1.86-6.16-2.85" fill="#353a85"/><path d="M113.71,403.87a54.46,54.46,0,0,1-6.91-.66c-1.19-22.85,1-46.79,1.91-69.75l17.61.94a205.18,205.18,0,0,0-8.71,37.74c-.27,2-3.56,31.71-3.9,31.72" fill="#efbfa5"/><path d="M106.1,398.78c-1.45-.26-2.3.39-3.27,1.27-.56.51-.94,1.24-1.62,1.6a5.32,5.32,0,0,1-2.14.52c-4.23.43-14,.25-8.79,7.33,4.72,6.43,17.25,3.87,24.49,2.12a2.5,2.5,0,0,0,1.33-.56,3.41,3.41,0,0,0,.73-1.44c.83-3,2-6.8-1.76-8.07-1.59-.54-3,.51-4.73-.07-1.38-.48-2.79-2.45-4.24-2.71" fill="#292949"/><path d="M95.55,347.24l35.91-.7Q146,277.41,157,207.6c.57-3.61,1.13-7.36.09-10.86-2-6.62-9.06-10.4-15.85-11.67-10.55-2-29.93.77-35.35,11.74-5.72,11.59-4.76,32.3-6.14,45.11a778.68,778.68,0,0,0-4.23,105.32" fill="#292949"/><path d="M182.16,403.87a54.46,54.46,0,0,0,6.91-.66c1.19-22.85-1-46.79-1.91-69.75l-17.61.94a205.12,205.12,0,0,1,8.71,37.74c.27,2,3.56,31.71,3.9,31.72" fill="#efbfa5"/><path d="M189.78,398.78c1.45-.26,2.3.39,3.27,1.27.56.51.94,1.24,1.62,1.6a5.32,5.32,0,0,0,2.14.52c4.23.43,14,.25,8.79,7.33-4.72,6.43-17.25,3.87-24.49,2.12a2.49,2.49,0,0,1-1.33-.56,3.4,3.4,0,0,1-.73-1.44c-.83-3-2-6.8,1.76-8.07,1.59-.54,3,.51,4.73-.07,1.38-.48,2.79-2.45,4.24-2.71" fill="#292949"/><path d="M200.32,347.24l-35.91-.7q-14.52-69.14-25.57-138.95c-.57-3.61-1.13-7.36-.09-10.86,2-6.62,9.06-10.4,15.85-11.67,10.55-2,29.93.77,35.35,11.74,5.72,11.59,4.76,32.3,6.14,45.11a778.67,778.67,0,0,1,4.23,105.32" fill="#292949"/><path d="M169.63,94.49a85.57,85.57,0,0,1,21.11,33c7.67,21.52,7.81,44.5,7.88,67q0,11.24.07,22.48c0,7.37-.63,9-8.64,8-14.85-1.8-30.28-4.86-43.74-11.46-6.4-3.14-12.38-7.11-19.1-9.58-9.76-3.6-19.77-2-29.43-4.31a229,229,0,0,0,9.35-36.54c2.22-13.45,4.23-28.12,7.48-41.39,1.95-8,5.57-15.4,9.26-22.72,2.48-4.92,5.1-10,9.31-13.51,12.68-10.71,26.89-.09,36.45,9" fill="#353a85"/><path d="M135,62.92c1.81,4,4.77,7.26,7.19,10.89A24.43,24.43,0,0,1,146,84.61c.45,3,1.51,5.26,5.06,5.76,6.71,1,4.79-4.59,6.31-8.62,1.74-4.61,5.45-8.25,8-12.36C172.94,57.51,170.8,34,155.22,29c-17-5.48-25.71,21.89-20.21,33.92" fill="#efbfa5"/><path d="M162.17,51.42c1.93.08,4.06.23,5.5,1.53s1.28,4.13-.62,4.44c-1.72.28-3.94-1.51-5-.21-.61.76-.07,1.88.39,2.78A16.31,16.31,0,0,1,163.94,71c.71.65,1.81,0,2.43-.71a35.62,35.62,0,0,0,7.06-11.6,7.12,7.12,0,0,0,2.6,2.51c-.64-1.6-.24-3.36.16-5,1.46-6,2.45-13.05-1.75-18a15.62,15.62,0,0,0-9.1-4.78,45.65,45.65,0,0,0-10.4-.32c-1.48.07-3.31.39-3.66,1.76a16.5,16.5,0,0,1,8.24,6.92c.5.94,2.45,9.57,2.65,9.58" fill="#292949"/><path d="M155.31,37l.35.26c1.47,1.12,2.85,2.48,4.63,3,2.57.72,5.33-.52,7.86.35,2.83,1,4.68,4.36,6.75,6.36A29.91,29.91,0,0,0,187,54a30.21,30.21,0,0,0,7.08,1.27,12.52,12.52,0,0,0,3.61,0c1.42-.38,1.38-1-.14-1.52-4.76-1.52-6.25-8.21-5.89-12.64.28-3.5,1.49-7.15.16-10.4-1-2.48-3.21-3.76-5.32-5.18-2.33-1.56-4.86-1.14-7.51-1.89s-5-3-7.83-3.52c-3-.59-6,.73-8.93,1.31a18.47,18.47,0,0,1-7.47-.09c-2.19-.48-4.33-1.37-6.58-1.35-3.31,0-6.36,2.1-8.29,4.79-2.73,3.8-4.5,10.31-3.54,15.32-.15-.78,2.47-3.59,3-4.2a7.08,7.08,0,0,1,4.24-2.68c3.93-.47,8.58,1.48,11.73,3.78" fill="#292949"/><path d="M24.85,191s3.66,17.41,1.22,25.28l6.66.05-2.15-28Z" fill="#babcbe"/><path d="M32.41,213.32q-2.8.44-5.62.64c-.3,0-.25.52.06.5q2.83-.2,5.62-.64c.3,0,.24-.54-.06-.5" fill="#babcbe"/><path d="M32.11,210.69l-5,.68c-.3,0-.24.54.06.5l5-.68c.3,0,.24-.54-.06-.5" fill="#babcbe"/><path d="M31.85,208.42a12.85,12.85,0,0,1-4.8.56c-.3,0-.24.5.06.5a22.93,22.93,0,0,0,4.8-.56c.29-.07.24-.56-.06-.5" fill="#babcbe"/><path d="M32,205.22a37.41,37.41,0,0,1-4.89.84c-.3,0-.25.53.06.5a37.3,37.3,0,0,0,4.89-.84c.29-.07.24-.57-.06-.5" fill="#babcbe"/><path d="M31.53,202.38q-2.39.36-4.8.57c-.3,0-.25.52.06.5q2.41-.22,4.8-.57c.3,0,.24-.54-.06-.5" fill="#babcbe"/><path d="M31.08,199.56q-2.32.44-4.66.69a.25.25,0,0,0,.06.5q2.34-.26,4.66-.69c.3-.06.24-.55-.06-.5" fill="#babcbe"/><path d="M30.84,196.33q-2.48.53-5,.85a.21.21,0,0,0-.12.06v.06c0,.12.06.24.09.37h.08q2.52-.32,5-.85c.29-.06.24-.56-.06-.5" fill="#babcbe"/><path d="M30.71,193.12l-4.9.71c-.3,0-.24.54.06.5l4.9-.71c.3,0,.24-.54-.06-.5" fill="#babcbe"/><path d="M142.28,243l-119,10a.28.28,0,0,1-.3-.26l-1.69-19.88a.28.28,0,0,1,.25-.3l119-10a.28.28,0,0,1,.3.26l1.69,19.88a.28.28,0,0,1-.25.3" fill="#d67086"/><polygon points="44.22 251.24 31.71 252.29 29.98 231.84 42.49 230.8 44.22 251.24" fill="#292949"/><polygon points="49.89 250.76 47.11 251 45.38 230.55 48.16 230.32 49.89 250.76" fill="#292949"/><path d="M59.6,239.66a3.56,3.56,0,1,1-3.86-3.32,3.59,3.59,0,0,1,3.86,3.32" fill="#292949"/><path d="M141.54,222.72l-119,10a.28.28,0,0,1-.3-.26l-1.35-15.92a.28.28,0,0,1,.25-.3l119-10a.28.28,0,0,1,.3.26l1.35,15.92a.28.28,0,0,1-.25.3" fill="#5d66d3"/><polygon points="36.45 219.63 37.06 226.78 40.55 223.28 36.45 219.63" fill="#eed5d5"/><polygon points="41.3 219.92 41.78 225.69 44.6 222.86 41.3 219.92" fill="#eed5d5"/><polygon points="29.25 232.13 28.71 232.18 27.31 215.69 27.85 215.65 29.25 232.13" fill="#eed5d5"/><polygon points="31.79 231.92 31.25 231.97 29.85 215.48 30.39 215.43 31.79 231.92" fill="#eed5d5"/><path d="M52.32,32.18l-8.47,3.14.11-2a60.19,60.19,0,0,0-2.5-19.42l.35-.37,7.77-6.71Z" fill="#eed5d5"/><polygon points="100.76 28.9 51.59 31.07 43.64 35.23 96.88 33 100.76 28.9" fill="#9eb79c"/><path d="M43.5,34.68a19.89,19.89,0,0,0,4.14-2.08l3.8-2.11c.2-.11.36.55.16.66l-4.11,2.28a18.69,18.69,0,0,1-3.92,1.94c-.21.06-.28-.64-.07-.7" fill="#b0c0ba"/><path d="M49.59,7.71a48.82,48.82,0,0,0-8.24,6.84c-.27.28-.63-.62-.35-.9A49.6,49.6,0,0,1,49.35,6.7c.3-.19.53.82.24,1" fill="#b0c0ba"/><path d="M98.71,4.88,49.18,6.8l.77,5.45c.62,4.41,1.07,8.84,1.34,13.25l.31,5.57,49.16-2.17,0-.33A87.2,87.2,0,0,0,98.71,4.88" fill="#8cabef"/><path d="M56.66,7.07c-.14-.69-1.22-.57-1.08.13a82.78,82.78,0,0,1,1.6,22.18c0,.71,1,.88,1.08.17A83.93,83.93,0,0,0,56.66,7.07" fill="#5d66d3"/><path d="M92.81,5.93c-.15-.69-1.23-.56-1.08.14a82.83,82.83,0,0,1,1.79,22.16c0,.71,1,.87,1.08.16A84,84,0,0,0,92.81,5.93" fill="#5d66d3"/><path d="M28.69,64.87l-19,4.85.4-2.75C11.3,58.68,9.49,48.8,6,41l.8-.52,17.72-9.61Z" fill="#efbfa5"/><polygon points="136.27 56.89 27.16 63.42 9.23 69.61 127.38 62.7 136.27 56.89" fill="#292949"/><path d="M9,68.89a63.64,63.64,0,0,0,9.32-3.11l8.58-3.12c.45-.16.75.72.3.88l-9.27,3.37a60,60,0,0,1-8.82,2.91c-.48.09-.58-.84-.11-.93" fill="#353a85"/><path d="M24.46,32.11A126.82,126.82,0,0,0,5.69,41.93c-.63.4-1.35-.79-.71-1.19a128.52,128.52,0,0,1,19-10c.67-.28,1.12,1.06.45,1.34" fill="#353a85"/><path d="M133.52,24.68,23.61,30.91l1.3,7.29a136.74,136.74,0,0,1,2,17.75l.27,7.47,109.11-6.53.06-.45A71.14,71.14,0,0,0,133.52,24.68Z" fill="#3b3387"/><path d="M131.79,206.76,31.08,215.2,29,191l100.71-8.44.13.32a41.89,41.89,0,0,1,1.93,23.86" fill="#dddae8"/><rect x="40.33" y="189.52" width="14.12" height="24.27" transform="matrix(1, -0.08, 0.08, 1, -16.68, 4.66)" fill="#353a85"/><path d="M27.21,165.39,8.29,164.21l.86,2.08c2.58,6.24,2.58,14.09.63,20.53l.84.3L29,192.28Z" fill="#efbfa5"/><polygon points="136.34 156.58 25.99 166.72 7.88 164.35 126.13 153.14 136.34 156.58" fill="#292949"/><path d="M7.75,164.95a74.25,74.25,0,0,1,9.36,1.15l8.72,1.26c.46.07.59-.66.13-.73l-9.42-1.36a70.1,70.1,0,0,0-8.85-1.06c-.47,0-.4.73.06.74" fill="#353a85"/><path d="M28.76,191.33a144.91,144.91,0,0,1-19.42-5.19c-.66-.23-1.13.77-.47,1a146.86,146.86,0,0,0,19.69,5.28.55.55,0,0,0,.2-1.09" fill="#353a85"/><path d="M138.59,183.1,28.16,192.35v-5.78a87.47,87.47,0,0,0-1.14-14l-1-5.85,110.35-10.14.14.35a45.93,45.93,0,0,1,2.11,26.16" fill="#474ebb"/><path d="M125.53,155.79,20.87,164.56a.28.28,0,0,1-.3-.26L18.5,139.8a.28.28,0,0,1,.25-.3l104.65-8.77a.28.28,0,0,1,.3.26l2.08,24.5a.28.28,0,0,1-.25.3" fill="#8cabef"/><path d="M136.36,111.76,7,122.6a.28.28,0,0,1-.3-.26l-1.5-17.73a.28.28,0,0,1,.25-.3L134.81,93.46a.28.28,0,0,1,.3.26l1.5,17.73a.28.28,0,0,1-.25.3" fill="#5d66d3"/><path d="M114.07,95.54,31.6,102.45,28.54,66.31,111,59.4l.47,2A109.49,109.49,0,0,1,114.2,93.5Z" fill="#d67086"/><polygon points="57.09 100.08 40.72 101.45 37.7 65.79 54.06 64.42 57.09 100.08" fill="#eed5d5"/><rect x="42.71" y="65.04" width="9.22" height="35.79" transform="translate(-6.76 4.24) rotate(-4.79)" fill="#d67086"/><g opacity="0.13"><g clip-path="url(#clip-path)"><polygon points="28.55 66.51 111.02 59.6 112.96 68.81 28.72 68.47 28.55 66.51" fill="#000100"/></g></g><g opacity="0.64"><g clip-path="url(#clip-path-2)"><path d="M71.34,17.09a5.6,5.6,0,1,1-6.07-5.23,5.66,5.66,0,0,1,6.07,5.23" fill="#5d66d3"/></g></g><path d="M18.88,112.2a18.65,18.65,0,0,0-4.15-3.31c-.61-.36-1.07.64-.47,1a17.49,17.49,0,0,1,3.55,2.79,33.34,33.34,0,0,1-3.1,3.74c-.49.51.35,1.22.83.72a33.4,33.4,0,0,0,3.4-4.15.58.58,0,0,0-.07-.78" fill="#dddae8"/><path d="M25.16,111.44a20.73,20.73,0,0,0-3.34-2.8.55.55,0,0,0-.7.85,26.75,26.75,0,0,1,2.93,2.34,15.83,15.83,0,0,1-1.42,1.52L21,115.11c-.47.53.36,1.24.83.72l1.92-2.13a7.43,7.43,0,0,0,1.43-1.7.56.56,0,0,0,0-.56" fill="#dddae8"/><path d="M28.18,106.9c-.54-.46-1.24.39-.7.85.32.28,1,1.26.28,1.47s-.29,1.23.38,1a1.48,1.48,0,0,0,1-1.54,2.6,2.6,0,0,0-1-1.81" fill="#dddae8"/><path d="M34.45,109.2a.54.54,0,0,0-.61-.18,2.14,2.14,0,0,0-2.33,3.54,2.06,2.06,0,0,0,2.87-.08,2.46,2.46,0,0,0,.07-3.28m-.79,2.45a1,1,0,0,1-1.45.07A1.05,1.05,0,0,1,33.43,110a.53.53,0,0,0,.31,0,1.29,1.29,0,0,1-.07,1.57" fill="#dddae8"/><rect x="109.31" y="131.85" width="1.25" height="25.25" transform="translate(-11.7 9.71) rotate(-4.8)" fill="#dddae8"/><rect x="114.36" y="131.43" width="1.25" height="25.25" transform="translate(-11.66 10.13) rotate(-4.8)" fill="#dddae8"/><g opacity="0.11"><g clip-path="url(#clip-path-3)"><path d="M29,192.28l101.18-8.48s.86,2.41,1.24,4L29.19,192.89Z" fill="#000100"/></g></g><path d="M131.18,130.29,1.8,141.14a.28.28,0,0,1-.3-.26L0,123.14a.28.28,0,0,1,.25-.3L129.63,112a.28.28,0,0,1,.3.26l1.5,17.73a.28.28,0,0,1-.25.3" fill="#292949"/><rect x="15.76" y="126.91" width="1.96" height="7.51" transform="translate(-10.84 1.85) rotate(-4.78)" fill="#dddae8"/><rect x="21.9" y="126.4" width="1.96" height="7.51" transform="translate(-10.77 2.36) rotate(-4.78)" fill="#dddae8"/><path d="M136.82,111.38,7.08,122.44a.61.61,0,0,1-.65-.69l129.91-12.1Z" fill="#eed5d5"/><path d="M136.28,110.63,6.54,121.69a.61.61,0,0,1-.65-.69l129.91-12.1Z" fill="#dddae8"/><path d="M22.89,69.73s5.81,22.59,2,32.45l6.69.28-3-35.94Z" fill="#babcbe"/><path d="M122.28,187a2.49,2.49,0,0,1,.3-.63c1.25-1.71,2.93-1.85,4.6-3.15.74-.58.53-3,2.39-2.34.69.24,2.29,1.06,3.74,1.59,2.12.76,5.28.45,7.74-.27a71.47,71.47,0,0,0,9.88-3.48c3.24-1.5,6.41-3.16,9.5-5,2.57-1.49,6.66-3.21,8.6-5.48,3.29-3.85-.52-13.22-1-18-.45-5,0-19.75,6.74-20.17,11.07-.68,11.24,9.84,11.74,18.3a108.39,108.39,0,0,1-.19,15.95c-.66,7.39-5.45,11.62-11.78,15.12-6.71,3.71-13.57,7.34-20.94,9.55a82,82,0,0,1-10.77,2c-3.61.58-3.15,2.16-6.18,3.48-1.69.74-3.28,1.81-5.08,2.22-3.24.74-5.83-1.51-8.29-3.24a3.56,3.56,0,0,1-1.35-1.35,5.15,5.15,0,0,1-.15-3.2,10,10,0,0,1,.46-1.9" fill="#efbfa5"/><path d="M186.35,151.29l-18.78,3.64c.4-.08-7.24-28.06-7.64-29.74-1.52-6.42-3-13.08-1.74-19.54,2.78-13.8,9.43-17.2,17.81-2.7,7.91,13.69,20.32,30.08,17.86,45.66a2,2,0,0,1-.33,1,2,2,0,0,1-1.26.57Z" fill="#353a85"/><path d="M341.94,104.1a82.88,82.88,0,0,0,29.77,11q2.82-12.91,6-25.76a45.47,45.47,0,0,1,3.65-10.81c1-1.79,4.57-5.06,3.45-7.38-2-4.07-10.53.43-13,1.79a73.81,73.81,0,0,0-17.22,13.69c-1.21,1.27-13.75,16.81-12.64,17.48" fill="#8cabef"/><path d="M429.52,306.69l.58,35.24c-.24,9.78.64,19.52,1.24,29.27.55,9.05-1.27,18.38,3,26.77,1.35,2.63,4.21,4.46,6.39,1.42,1.68-2.34.91-6.39,1.32-9.11,3.12-20.43,8.93-40.35,11.82-60.82,3-21.44-5.26-20.87-24.38-22.77" fill="#efbfa5"/><polygon points="431.52 391.94 429.25 397.82 440.4 407.63 450.61 408.06 453.92 402.67 440.18 390.72 431.52 391.94" fill="#292949"/><path d="M404.55,307l-6.43,34.65c-2.23,15.5-7.29,30.6-9.52,46.1-.51,3.56-.25,7.46-1.74,10.83S382.55,402,380,399.8c-3.37-3-1.82-8.33-1.75-12.42.41-27.21-1.73-54-2.24-81.28a1.21,1.21,0,0,1,.28-1,1.17,1.17,0,0,1,.84-.16c2.65.18,27.26,2.83,27.4,2.08" fill="#efbfa5"/><polygon points="378.2 393.39 374.66 398.61 383.31 410.68 393.16 413.4 397.6 408.89 386.91 394.16 378.2 393.39" fill="#292949"/><polygon points="465.84 329.11 461.03 278.73 458.71 245.99 450.91 219.25 408.82 212.72 356.78 221.64 354.28 231.75 364.29 325.35 414.49 329.11 413.81 270.86 421.55 306.96 421.22 329.11 465.84 329.11" fill="#292949"/><path d="M367.83,120.82q-.11,2.55-.15,5.1c-.61,34.56,1.3,69.56,1.51,104.4a386.94,386.94,0,0,1,53.95-4.61c4.18-.06,23.19,2.87,25.83.38,3.59-3.39-.36-2.75-.1-7.16.34-5.71-2.4-10.39-1.37-17.15,1.22-8,3.64-15.82,5-23.77a347,347,0,0,0,5-48.26c.49-14.35,0-29.23-6.21-42.19-15.22-32-64.27-31.39-77.73,2-4,9.89-5.37,20.59-5.82,31.27" fill="#fff"/><path d="M423.18,76l-13.32,24.28,2.09,73.58,1,33.91c.11,3.93.21,7.85.33,11.78.06,1.76-.43,4.73.58,6.16,2.18,3.12,10.15,2.15,13.63,2.42,5.42.43,10.93.87,16,2.74,3.4,1.25,6.63,3.12,10.21,3.63a3,3,0,0,0,2.34-.38,3.4,3.4,0,0,0,.9-2.49c1.25-16.84,1.27-34.2,2.21-51.22.73-13.38,2.55-26.88,1.91-40.28a286.84,286.84,0,0,0-5.45-41c-1.56-8-3.39-16.18-7.81-23-5-7.79-12.08-10.91-20.8-12.66-3.08-.62-14.54-5-12.63,2,.95,3.46,6.47,7.79,8.81,10.57" fill="#8cabef"/><path d="M394.19,78.26l13.32,24.28c-.28,0-1.69,59.52-1.8,63.54l-1.3,45.83c-.12,4.25.45,9.22-.38,13.4-1.16,5.83-7.29,4.68-12.52,5.15-11.44,1-23.48,3-34.94,2.4-3.31-.17,1-69.19,1-75.64,0-23.17-4.8-48.87,7-69.88C368,81.23,374,71.44,380.7,68.42c6.21-2.81,15.1-3.29,21.84-4.87l.35,4.37Z" fill="#8cabef"/><path d="M423.11,19.45a26.88,26.88,0,0,1,3.29,12.14c0,1.12.13,2.42,1,3.09s.12,2.27.86,1.32,3.25-4.25,3.37-5.45a44.36,44.36,0,0,0,0-8.45c-.24-2.44-.74-5-2.34-6.86a13.75,13.75,0,0,0-3.46-2.63A17.68,17.68,0,0,0,420.12,10c-3.58-.67-5.77.62-2.61,3.11a21.82,21.82,0,0,1,5.61,6.32" fill="#292949"/><path d="M400.77,67.41c0,1.73-.33,3.53,1.2,4.87a5.23,5.23,0,0,0,2.69,1.06,16.68,16.68,0,0,0,7.49-.53,6.73,6.73,0,0,0,2.73-1.44,3.42,3.42,0,0,0,1-2.77c0-1.3.31-2.63.48-4,.37-2.89.54-5.81.62-8.72,4.29-.73,9.33-2.12,10.79-6.61a14.74,14.74,0,0,0,.49-4.46q.07-9.33.14-18.66a18,18,0,0,0-.72-6.36c-1.29-3.5-4.58-5.59-7.8-6.9-8.22-3.35-17.8-3.22-25.38,1.55a13.86,13.86,0,0,0-5.09,5.12c-1.79,3.42-1.57,7.63-1.29,11.58l.77,10.92c.3,4.19.92,9,4.17,11.21,1.73,1.17,4,1.39,5.44,2.91,2.6,2.65,1.36,6.61,2.13,9.82a6.32,6.32,0,0,1,.15,1.38" fill="#efbfa5"/><path d="M429.75,42.37c-.07-1.15-.57-4.53-2.31-2.41a3.47,3.47,0,0,0-.59,2.08,7.86,7.86,0,0,1-.23,2.2,3.87,3.87,0,0,1-3.88,2.3,3.79,3.79,0,0,1-1.82-.43,5.68,5.68,0,0,1-1.38-1.27l-3-3.48c-1.74-2-5.19-1.13-7.53-.83a15,15,0,0,0-7.61,2.94l-.66.56A8.08,8.08,0,0,1,399,45.24c-2.08,1-4.67,0-6.13-1.94-.67-.87-1.29-2-2.33-2.14a2.14,2.14,0,0,0-2,1.23,6.1,6.1,0,0,0-.59,2.55,18.74,18.74,0,0,0,1.63,9.37c3,6.18,8.86,6.94,14.72,6.8l7-.16c4.24-.1,8.72-.28,12.29-2.74,3.15-2.17,5-5.87,5.79-9.74a24,24,0,0,0,.39-6.1m-15.51,8.76a8.12,8.12,0,0,1-7.18.83c-1.06-.32-.61-2.09.45-1.77a6.53,6.53,0,0,0,5.87-.65c.94-.63,1.79,1,.86,1.59" fill="#292949"/><path d="M430.63,8.67a33.19,33.19,0,0,0,.91-4.59,9.09,9.09,0,0,1-4.5.39q0-1.34,0-2.68C427,1,417,.52,416.14.45c-7.65-.63-14.65-1.23-21.57,2.88-5.91,3.51-9.7,8.75-10.61,15.57a31.88,31.88,0,0,0,5,20.43c0-1.73-1-5.83-.61-7.48A14.72,14.72,0,0,1,390,27.14,19.45,19.45,0,0,1,396.81,20a37.81,37.81,0,0,1,14.91-5c4.77-.66,10.59-1.28,15.3,0,2.27.61,2.64,1.18,4-1.11a38.89,38.89,0,0,0,2-5.12l-2.39,0" fill="#292949"/><path d="M579.8,124.14l-170.94,17-170.94-17a7.88,7.88,0,0,0-8.6,8.36l7.13,169.13a7.87,7.87,0,0,0,7,7.38c28.13,2.89,137.89,13.85,150.19,15.25a1.86,1.86,0,0,1,1.45,1c.83,1.61,3.79,4.9,13.74,4.9s12.91-3.29,13.74-4.9a1.86,1.86,0,0,1,1.45-1c12.31-1.4,122.07-12.36,150.19-15.25a7.87,7.87,0,0,0,7-7.38l7.13-169.13a7.88,7.88,0,0,0-8.6-8.36" fill="#353a85"/><path d="M579.8,121.35l-170.94,17-170.94-17a7.88,7.88,0,0,0-8.6,8.36l7.13,169.13a7.87,7.87,0,0,0,7,7.38c28.13,2.89,137.89,13.85,150.19,15.25a1.86,1.86,0,0,1,1.45,1c.83,1.61,3.79,4.9,13.74,4.9s12.91-3.29,13.74-4.9a1.86,1.86,0,0,1,1.45-1c12.31-1.4,122.07-12.36,150.19-15.25a7.87,7.87,0,0,0,7-7.38l7.13-169.13a7.88,7.88,0,0,0-8.6-8.36" fill="#5d66d3"/><path d="M409.5,137.11c-78.75-52.67-158.15-28.82-158.15-28.82V291.21c109.76-22.27,157.51,23.86,157.51,23.86s47.74-46.13,157.51-23.86V108.28S488.25,84.44,409.5,137.11" fill="#dfd8c7"/><path d="M251.35,108.28s-3.52,13.92-15.76,22.27l7.88,174.77s7.88-6.16,7.88-14.12Z" fill="#c1bbac"/><path d="M566.36,108.28s3.52,13.92,15.76,22.27l-7.88,174.77s-7.88-6.16-7.88-14.12Z" fill="#c1bbac"/><path d="M243.47,305.33S353,280.27,401.9,324.41h7v-9.35s-49.41-46.92-157.51-23.86Z" fill="#cbc4b5"/><path d="M574.24,305.33s-109.49-25.05-158.43,19.09h-7v-9.35s49.41-46.92,157.51-23.86Z" fill="#cbc4b5"/><path d="M327.27,97.09c-9.49-.94-18.9-1.32-27.87-1.41-4.13,0-38.13,1.25-38.13,2.41V282.16c0-1.16,34.07-2.46,38.22-2.41,29.26.31,62.15,5.67,88,20,4.32,2.39,21.86,11.78,21.86,18.38V138.93a14.42,14.42,0,0,0-3.86-9.86c-19.65-21-49.28-29.12-78.24-32" fill="#f4f4f4"/><path d="M491.47,97.09c9.49-.94,18.9-1.32,27.87-1.41,4.13,0,38.13,1.25,38.13,2.41V282.16c0-1.16-34.07-2.46-38.22-2.41-29.26.31-62.15,5.67-88,20-4.32,2.39-21.86,11.78-21.86,18.38V138.93a14.42,14.42,0,0,1,3.86-9.86c19.65-21,49.28-29.12,78.24-32" fill="#fff"/><g opacity="0.05"><g clip-path="url(#clip-path-4)"><path d="M491.47,97.09c9.49-.94,18.9-1.32,27.87-1.41,4.13,0,38.13,1.25,38.13,2.41V282.16c0-1.16-34.07-2.46-38.22-2.41-29.26.31-62.15,5.67-88,20-4.32,2.39-21.86,11.78-21.86,18.38V138.93a14.42,14.42,0,0,1,3.86-9.86c19.65-21,49.28-29.12,78.24-32" fill="#272525"/></g></g><g opacity="0.05"><g clip-path="url(#clip-path-5)"><path d="M409.37,147.79v170.3c0-6.6,17.53-16,21.86-18.38,20.75-11.46,46-17.16,70.29-19.14h0C426.67,248.06,412,168.49,409.37,147.79" fill="#272525"/></g></g><path d="M711.66,140.67a2.86,2.86,0,0,0-.77-.25c-2.44-.31-3.9,1-6.32,1.37-1.08.17-2.95-1.94-3.89.15-.35.77-.93,2.78-1.65,4.42-1.05,2.4-3.84,4.81-6.4,6.31-10.07,5.91-21.47,8.91-32.85,11.53a4.19,4.19,0,0,1-2,.13c-1.15-.3-1.82-1.47-2.38-2.52A89.24,89.24,0,0,0,646.32,148c-3.08-3.85-6.59-7.52-11-9.66s-10-2.52-14.17.09a11.7,11.7,0,0,0-5.41,9.17c-.47,9.14,11.57,15,17.86,19.63a158.78,158.78,0,0,0,18.74,12,6.84,6.84,0,0,0,2.55,1,7,7,0,0,0,2.86-.54,346.6,346.6,0,0,0,34.81-14.51c3.14-1.47,5.11-4.41,8-5.74,1.86-.85,3.93-.18,5.87-.59a19.05,19.05,0,0,0,5.95-2.52c3.21-2.14,3.39-6.12,3.88-9.58a4.14,4.14,0,0,0-.06-2.21,6,6,0,0,0-2.57-2.68,11.6,11.6,0,0,0-2-1.12" fill="#efbfa5"/><path d="M632.62,163.8l18.05-12.93c-.39.28-17.89-28.5-19-30.18-4.2-6.4-8.6-13-15.09-17.07-13.86-8.67-31.36,3.85-26,19.9,5.78,17.43,18.7,34.11,33.8,44.47a2.31,2.31,0,0,0,1.07.49,2.36,2.36,0,0,0,1.48-.61l5.7-4.08" fill="#dddae8"/><polygon points="618.8 387.59 618.54 406.17 629.55 406.32 629.84 385.72 618.8 387.59" fill="#efbfa5"/><path d="M628.57,403.41,619,406.57l-2.85,3.07.48,7.28,25.88,2a5.76,5.76,0,0,0-2.88-8.76l-1.2-.41Z" fill="#292949"/><polygon points="539.47 369.79 532.18 386.87 542.31 391.19 550.39 372.24 539.47 369.79" fill="#efbfa5"/><path d="M542.12,391.51a8.39,8.39,0,0,0-1.28-1.14c-1.22-.89-11-6.09-11.87-3.75a2.63,2.63,0,0,0,0,1.2,89.27,89.27,0,0,0,4.71,19.78c1,2.73,2.49,5.76,5.32,6.44a8.36,8.36,0,0,0,3.78-.2,39.27,39.27,0,0,0,5.39-1.64,3,3,0,0,0,1.66-1.15c.67-1.2-.5-2.63-1.71-3.28s-2.69-1.11-3.29-2.36a4.74,4.74,0,0,1-.34-1.81c-.25-4.57.53-9-2.32-12.11" fill="#292949"/><path d="M608.64,301.5C605,318,594.7,329.88,583.67,342a523.08,523.08,0,0,0-35.55,43.65l-14.34-6c4-23.21,15-44.5,23.53-66.45,5.93-15.25,10.73-31.38,11-47.87.13-8.2-1.86-15.69-2.92-23.67-1.32-9.88-1.39-20-2.58-29.92-.4-3.33-.63-7.26,1.93-9.43a8.82,8.82,0,0,1,4.1-1.65c54.33-10.52,46.66,69.39,39.79,100.79" fill="#babcbe"/><path d="M564.37,214.89a112.64,112.64,0,0,1,3.07-27c15.46-.83,32.92.88,48.21,4,14.94,3,24.26,6.28,24.37,22.48.2,29.81,11.85,55.2,16.88,83.86,2.92,16.65-2.13,31.55-7.73,47A523,523,0,0,0,632.84,399l-15.53-.09c-5.11-23-3-46.87-3.44-70.41-.3-16.36-2-33.11-8-48.46-6.61-16.88-16.13-10.16-27.05-19.94-10.62-9.51-14.41-27.9-14.46-45.21" fill="#babcbe"/><path d="M581.92,100.17a41.31,41.31,0,0,0-4.69,4.5l-4,4.25c-4.6,4.91-6.87,12.17-8.84,18.44C554,160.33,550.3,205.58,557,240c25.55,2.21,55.13-4.24,80.63-7.72,2.48-.34,5.29-.89,6.57-3a8.49,8.49,0,0,0,.8-4.42c0-21.88-4.63-45.39-9-67a235.81,235.81,0,0,0-7-26.95c-3.06-9.34-6.51-19.43-13.67-26.49-7.66-7.56-22.34-11.3-31.93-5.39a17.78,17.78,0,0,0-1.58,1.1" fill="#d67086"/><path d="M584.71,104.77l-1.39-8.93a16.52,16.52,0,0,1-1.76-1c-10.66-6.81-28.53-43.34-.13-51.52,25.8-7.43,24.45,28.06,19.42,42.85a22,22,0,0,1-3.72,7c-1.17,1.42-1.43,1.15-1.26,2.79s1.75,3.39,2.11,5.07a6.83,6.83,0,0,1-.8,5.28,7.05,7.05,0,0,1-2.56,2.14,8,8,0,0,1-5.16,1,6.49,6.49,0,0,1-4.76-4.68" fill="#efbfa5"/><path d="M606.92,72.8c-2.15,7.28-4,10.09-6.56,13.37-5.39,6.87-.91-17.49-3.14-25.93a2.51,2.51,0,0,1,0-1.94,2.36,2.36,0,0,1,1.6-.86c10.86-2.35,10.83,7.14,8.08,15.37" fill="#292949"/><path d="M578.38,86c-1.74,2.45-5.56,1.79-8.25.44-11-5.55-17.54-18.91-15.09-31,2.05-10.14,14.83-17.74,17.41-5.18.92,4.45-1.8,10.62-1.17,15.56.89,7.06,4.18,13.81,7.11,20.2" fill="#292949"/><path d="M606.8,34l3.82,1.52c2.75,1.07,4.73,1.44,7.57-.17.81-.46,6.23-5.59,4.93-6.65,8.65,7.06,1.54,17.36-1.71,24.66-2.19,4.92-2.64,11.86-7.55,15.07-5.41,3.53-9.12-.93-14-2.94-4.33-1.77-9-2.72-13.42-4.3-7.31-2.61-18.19-7.19-15.77-16.91C573.47,33,585,30.15,595.29,31a38.58,38.58,0,0,1,11.51,3" fill="#292949"/><path d="M722.41,252.27,695.66,212V75.24a2.42,2.42,0,0,1,4.44-1.34l22.31,33.58Z" fill="#353a85"/><polygon points="721.22 108.81 698.25 74.72 688.77 76.69 716.29 111.16 716.29 253.49 721.22 252.28 721.22 108.81" fill="#fff"/><polygon points="612.85 98.54 629.23 92.58 716.29 111.16 716.29 248.9 612.85 230.27 612.85 98.54" fill="#fff"/><path d="M709,256.53l-101.52-14a4.84,4.84,0,0,1-3.9-4.74V102.8a4.84,4.84,0,0,1,5.77-4.74L709,111.73Z" fill="#353a85"/><path d="M722.41,107.48c-.25,1-2.8,2.58-6.12,3.68-3.59,1.2-6.77,1.43-7.26.55h0V256.16a.59.59,0,0,0,0,.31v.06h0c.4.93,3.63.71,7.28-.51s6.41-3,6.12-4Z" fill="#5d66d3"/><polygon points="688.77 76.69 688.77 105.29 716.29 111.16 688.77 76.69" fill="#dfd8c7"/><polygon points="716.29 111.16 637.05 90.55 637.05 94.25 716.29 111.16" fill="#cbc4b5"/><polygon points="615.59 215.03 699.24 226.6 699.24 245.34 615.59 233.76 615.59 215.03" fill="#8cabef"/><g opacity="0.08"><g clip-path="url(#clip-path-6)"><path d="M607.47,242.49l101.52,14V111.73S695.66,221.64,607.47,242.49" fill="#272525"/></g></g><path d="M667.07,200.71a2.88,2.88,0,0,0-.61-.54c-2.12-1.26-4-.64-6.34-1.27-1.06-.28-1.93-3-3.62-1.42-.62.57-2,2.17-3.28,3.4-1.92,1.78-5.44,2.88-8.39,3.24-11.59,1.4-23.25-.4-34.72-2.53a4.19,4.19,0,0,1-1.86-.67c-.94-.73-1.08-2.07-1.18-3.26a89.34,89.34,0,0,0-2.84-16.3c-1.29-4.76-3-9.52-6.26-13.26s-8.15-6.29-13-5.57a11.7,11.7,0,0,0-8.62,6.25c-4.08,8.19,4.64,18.33,8.55,25.13a158.9,158.9,0,0,0,12.4,18.47,6.83,6.83,0,0,0,2,1.9,6.94,6.94,0,0,0,2.83.64,346.81,346.81,0,0,0,37.71.58c3.47-.1,6.44-2,9.65-2.06,2,0,3.68,1.4,5.62,1.8a19.07,19.07,0,0,0,6.46.06c3.79-.68,5.55-4.26,7.38-7.24a4.14,4.14,0,0,0,.82-2.05,6,6,0,0,0-1.29-3.49,11.62,11.62,0,0,0-1.36-1.82" fill="#efbfa5"/><path d="M585.37,190.39l21.71-4.65c-.46.1-5-33.27-5.37-35.25-1.3-7.55-2.7-15.35-7-21.67-9.25-13.48-30.29-9-31.81,7.86-1.65,18.28,3.54,38.74,13.25,54.26a2.32,2.32,0,0,0,.79.88,2.36,2.36,0,0,0,1.6,0l6.86-1.47" fill="#d67086"/><path d="M326.33,382.71c-.9-7.81-4.82-14-12.06-17.42-5.87-2.75-12.47-3.4-18.9-4.23-14.32-1.84-28-3.67-42.46-3.11-11.56.45-18.69,10.32-24.1,20.05-3.41,6.13-2.46,9,1.83,14.15A51.92,51.92,0,0,0,244.78,404c10.63,6,27,4.55,38.66,3.24a90.31,90.31,0,0,0,31.71-9.68c6.34-3.31,12.06-7.22,11.18-14.83" fill="#292949"/><path d="M254,403.95a136.67,136.67,0,0,0-5,13.76,23.32,23.32,0,0,0-1.35,7.6c.22,6,7,10.43,11.35,4.84a30.4,30.4,0,0,0,4.56-8.12c1.61-4.3-1.79-1.8-4.67-3.12-3.31-1.52-3.23-2.71-1.83-5.81,1.81-4,4-6.61,3.7-11.21-.07-1.27-.43-2.74-1.6-3.24a2.57,2.57,0,0,0-2.66.65,7.29,7.29,0,0,0-1.52,2.44q-.49,1.1-1,2.21" fill="#292949"/><path d="M276.42,261.65l11.71,1.14a73.67,73.67,0,0,0,1.06-10.44c3.4-.59,7.4-1.7,8.57-5.34a12.15,12.15,0,0,0,.39-3.61l.13-15.11a14.88,14.88,0,0,0-.56-5.15c-1-2.84-3.62-4.53-6.18-5.6-6.51-2.73-14.11-2.63-20.14,1.22a11.11,11.11,0,0,0-4,4.14c-1.43,2.76-1.25,6.18-1,9.37l.6,8.84c.23,3.39.72,7.29,3.3,9.09,1.37,1,3.14,1.13,4.31,2.36,2.08,2.17,1.12,6,1.88,9.1" fill="#b97262"/><path d="M292.41,222.87a5,5,0,0,1,.41.86c.57,1.55.24,3.33.79,4.89.88,2.47,3.81,3.91,4.29,6.49.4,2.11-1,4.15-1.1,6.29-.09,2.34,1.45,4.53,1.26,6.85a15.29,15.29,0,0,1-2.56,6.48c.36-.5,3.73-.39,4.59-.94a3.53,3.53,0,0,0,1.84-2.75c.37-1.39,0-2.74.63-4.17.72-1.75,2.25-3.05,2.76-4.91.7-2.54-.7-5.18-.64-7.81.09-4,3.46-7.8,2.15-11.56-.77-2.21-3-3.59-4.2-5.57a30.1,30.1,0,0,1-2-4.93c-.67-1.65-1.8-3.28-3.51-3.76a28.93,28.93,0,0,0-2.94-.29c-1.68-.28-3.1-1.41-4.72-1.93-2.32-.74-6.36,1.67-7.67,3.65s-.6,3.61.8,5.3c2.33,2.82,7.87,4.6,9.81,7.82" fill="#292949"/><path d="M259.25,212c-1.37,1-3.06,1.8-4.31,3-2.42,2.36-2.83,6.07-2.86,9.45,0,3-1.29,5.71-.91,8.84a7.68,7.68,0,0,0,2.93,5.43c2.16,1.51,5.52,1.7,6.52,4.15,1.08,2.65-1.63,6.07.1,8.36.95,1.26,2.77,1.42,4.11,2.26,1.5.93,2.29,2.63,3.22,4.13s2.31,3,4.08,3c0-2.68.07-4.81-1.12-7.24-.69-1.42-2.7-4-1.22-5.59.93-1.3,3.17-1.76,3.2-3.36a3.7,3.7,0,0,0-.95-2,9.2,9.2,0,0,1-.83-8.35,12,12,0,0,1,5.83-6.23c3-1.54,2.53-2.28,3.37-5.23.77-2.72,2.29-3.38,4.71-4.41,2.17-.92,2.86-1.49,3.63-3.55.56-1.51,1.26-3.31.37-5a10.09,10.09,0,0,0-3.15-3.12c-2.51-1.84-5.33-3.78-8.43-3.5-1.72.16-3.33,1-5.06,1.12-1.15.09-2.3-.15-3.45-.17a9.17,9.17,0,0,0-5.6,1.8c-1.58,1.21-1.52,2.44-2.38,4.14a6,6,0,0,1-1.79,2" fill="#292949"/><path d="M266,200.83c.27-1.87,0-4.3-1.76-4.9-1-.33-2.07.07-3.09-.12-2.17-.4-3-3-4.13-4.89a1.64,1.64,0,0,0-.69-.69,2.66,2.66,0,0,0-1.4.06c-2.15.3-3.83-1.8-5.87-2.53a5.1,5.1,0,0,0-6.37,3.31c-.29,1.06-.22,2.2-.49,3.27-1.11,4.34-7.39,6.28-7.47,10.76-.05,3,3,5.87,1.85,8.68-.7,1.8-3,3.06-2.68,5a2.67,2.67,0,0,0,2.76,2,5.36,5.36,0,0,0,3.3-1.58c1.46-1.32,2.55-3,3.95-4.41s3.26-2.55,5.22-2.34,3.64,1.65,5.52,1.3c1.5-.28,2.6-1.65,4.07-2.05s2.83.14,4.26.2,3.17-.71,3.18-2.14a3.6,3.6,0,0,1,0-1c.29-.93,1.86-.9,2.15-1.83-.77-1.14-1.81-.71-2.37-2.2a8.25,8.25,0,0,1,.05-3.84" fill="#292949"/><path d="M287,257.87c5.45-.73,11-1.71,15.54.28,3.86,1.68,3.8,6.56,4.66,10.25,2.86,12.2,5,24.56,6.69,37,.8,5.94,2.19,12.3,2.16,18.29,0,4.81-1.23,9.49-.86,14.39.28,3.77,1.89,7.84,5.34,9.38,1.74.78,3.73.81,5.47,1.58s3.23,2.82,2.35,4.5a4.69,4.69,0,0,1-2,1.73l-12.91,7.2a69.08,69.08,0,0,1-10.13,4.95,54.51,54.51,0,0,1-15.71,2.69,129.37,129.37,0,0,1-40.89-4.49c-7.15-2-14.05-5.47-12.32-13.56,1.78-8.32,5.24-16.63,9-24.25,4.5-9.23,5.84-20.34,9-30.08S259,278,262.45,268.25l0-.11c1.26-3.58,1.78-7.12,4.55-10,3.8-4,5.63-.81,9.94,0a32.41,32.41,0,0,0,10-.23" fill="#fff"/><path d="M300.39,408.9l3.72.2c1.35.07,2.85.09,3.85-.81,1.22-1.1,1.09-3.18.1-4.49a8.1,8.1,0,0,0-4.16-2.52,44.06,44.06,0,0,0-11.76-1.74,2.85,2.85,0,0,0-1.18.12,2.43,2.43,0,0,0-1.23,1.6c-2.25,6.84,5.83,7.39,10.65,7.65" fill="#b97262"/><path d="M252.68,420.55a3,3,0,0,0,.11,1.64,2.17,2.17,0,0,0,.83.86c2.56,1.63,6-.13,8-2.44s3.28-5.24,5.78-7c5.71-3.94.48-11.14-5.49-9.49-7,1.93-8.43,10.3-9.18,16.39" fill="#b97262"/><path d="M329.69,383.44c4.93-3.63,9.88-7.74,11.69-13.84s-.74-14.73-7.11-18.26c-7.76-4.29-15.39,1-20.92,6-11.34,10.19-23.7,19.2-35.78,28.53-4.08,3.15-18.25,14.75-18.25,14.75-.39,1.63,7.22,16.43,9.24,15.89,22-5.83,43.48-20.06,61.13-33" fill="#292949"/><path d="M218.76,390.46c-4.83-2.35-9.69-5.19-11.6-10.83s.26-14.95,6.25-20.12c7.3-6.31,14.75-3,20.2.55,11.16,7.27,23.26,13.09,35.1,19.29,4,2.1,17.91,10,17.91,10,.42,1.54-6.41,18.32-8.36,18.3-21.27-.12-42.21-8.82-59.5-17.23" fill="#292949"/><path d="M292.08,411.89a138.26,138.26,0,0,0,13.64,5.75,23.59,23.59,0,0,0,7.6,1.74c6.12.07,10.88-6.5,5.45-11.22a30.74,30.74,0,0,0-8-5c-4.26-1.84-1.9,1.72-3.38,4.56-1.7,3.27-2.89,3.13-6,1.56-3.95-2-6.47-4.32-11.13-4.29-1.29,0-2.79.3-3.35,1.46a2.6,2.6,0,0,0,.52,2.72,7.38,7.38,0,0,0,2.39,1.66l2.19,1.09" fill="#292949"/><path d="M355.85,330.44a3.16,3.16,0,0,1-.13-.88c.14-2.7,1.82-4,2.69-6.56.39-1.14-1.52-3.56.91-4.17s7.39-.2,9.1-2.51c.75-1,1.68-2.36,2.91-2.05a2.49,2.49,0,0,1,1.08.7c10.31,10,.29,22-10.95,21.61a4.54,4.54,0,0,1-2.37-.5,6.56,6.56,0,0,1-2.4-3.3,12.72,12.72,0,0,1-.84-2.34" fill="#b97262"/><path d="M375.61,332.24a6.66,6.66,0,0,0,7.44-2.16,9.92,9.92,0,0,0,1.79-7.85,20.12,20.12,0,0,0-3.27-7.57c-1.79-2.75-4.05-5.39-7.11-6.55a16.08,16.08,0,0,0-5.39-.84,4.76,4.76,0,0,0-3.49.9,4.56,4.56,0,0,0-1.08,2.38c-1.23,5.61-.26,6.43,3.41,10.16a44.28,44.28,0,0,1,7.71,11.53" fill="#fff"/><path d="M206.34,270.77v-8.62s46.21-4.29,74,14.21Z" fill="#dfd8c7"/><path d="M196.87,269.85l6.19-4.77s37.79-7.22,77.28,11.29V379.1s-26.78-19.25-83.47-11.69Z" fill="#fff"/><path d="M354.34,270.77v-8.62s-46.21-4.29-74,14.21Z" fill="#dfd8c7"/><path d="M363.8,269.85l-6.19-4.77s-37.79-7.22-77.28,11.29V379.1s26.78-19.25,83.47-11.69Z" fill="#fff"/><path d="M280.34,276.32c4.31-.24,7.58-1.26,7.76-2.5,0,0,0-.05.07-.08l-.06,0,.22-.05c1.22-.54,7-1.7,8.75-2.08l.37-.08.07,0a132,132,0,0,1,14.86-2.81c19-3,32.9-2.44,40.73-1.29a42,42,0,0,1,8.5,1.88,10.07,10.07,0,0,1,1.41.6h0a5.81,5.81,0,0,1,2.33,2.13,7.15,7.15,0,0,1,.85,4.09v90.73c0,2.56-2.12,5.1-4.64,4.63a147,147,0,0,0-37.82-2.07,157.77,157.77,0,0,0-30.34,5c-3.22.88-7.26,1.57-10.22,3.16a3.26,3.26,0,0,1-1.54.39,3.28,3.28,0,0,1-.73-.08l-.72-.26a3.25,3.25,0,0,1-1.8-2.91V278.53c0-.77.67-1.51,1.93-2.21" fill="#353a85"/><path d="M280.36,276.32c-4.31-.24-7.58-1.26-7.76-2.5,0,0,0-.05-.07-.08l.06,0-.22-.05c-1.22-.54-7-1.7-8.75-2.08l-.37-.08-.07,0a132,132,0,0,0-14.86-2.81c-19-3-32.9-2.44-40.73-1.29a42,42,0,0,0-8.5,1.88,10,10,0,0,0-1.41.6h0a5.81,5.81,0,0,0-2.33,2.13,7.15,7.15,0,0,0-.85,4.09v90.73c0,2.56,2.12,5.1,4.64,4.63a147,147,0,0,1,37.82-2.07,157.77,157.77,0,0,1,30.34,5c3.22.88,7.26,1.57,10.22,3.16a3.26,3.26,0,0,0,1.54.39,3.28,3.28,0,0,0,.73-.08l.72-.26a3.25,3.25,0,0,0,1.8-2.91V278.53c0-.77-.67-1.51-1.93-2.21" fill="#353a85"/><g opacity="0.1"><g clip-path="url(#clip-path-7)"><path d="M272.57,292s-9.22,60-66.23,78.3h0a147,147,0,0,1,30.6-.92,157.77,157.77,0,0,1,30.34,5c3.22.88,7.26,1.57,10.22,3.16a3.24,3.24,0,0,0,.91.33,3.3,3.3,0,0,0,.62.06,3.24,3.24,0,0,0,.73-.08l.72-.26a3.25,3.25,0,0,0,1.8-2.91V292Z" fill="#272525"/></g></g><path d="M280.37,276.12c-4.31,0-7.8-1.22-7.78-2.41l0,102.73c0,1.47,3.49,2.67,7.8,2.67s7.8-1.19,7.8-2.67V273.74c-.38,1.36-3.49,2.39-7.8,2.39" fill="#5d66d3"/><g opacity="0.2"><g clip-path="url(#clip-path-8)"><path d="M365.37,272a5.82,5.82,0,0,0-2.33-2.13h0a10,10,0,0,0-1.41-.59,42,42,0,0,0-8.5-1.88c-7.84-1.15-21.76-1.68-40.73,1.29a131.88,131.88,0,0,0-14.86,2.81l-.07,0-.37.08c-1.76.38-7.53,1.53-8.75,2.08l-.22.06.06,0s-.07.06-.07.08a.87.87,0,0,1-.09.26c-.77,1.18-3.71,2-7.64,2-4.13,0-7.51-1.13-7.77-2.27v0h0a.57.57,0,0,1,0-.11v.09l-.06-.06.06,0-.22-.06c-1.22-.54-7-1.7-8.75-2.08l-.37-.08-.07,0a131.88,131.88,0,0,0-14.86-2.81c-19-3-32.9-2.44-40.73-1.29a42,42,0,0,0-8.5,1.88,10.06,10.06,0,0,0-1.41.59h0a5.81,5.81,0,0,0-2.33,2.13,7.15,7.15,0,0,0-.85,4.09v1.71a7.15,7.15,0,0,1,.85-4.09,5.81,5.81,0,0,1,2.33-2.13h0a10,10,0,0,1,1.41-.6,42,42,0,0,1,8.5-1.88c7.84-1.15,21.76-1.68,40.73,1.3a131.88,131.88,0,0,1,14.86,2.81l.07,0,.37.08c1.76.38,7.53,1.53,8.75,2.08l.22.05a.57.57,0,0,0,0,.11h0v0c.25,1.14,3.63,2.27,7.77,2.27,3.94,0,6.88-.86,7.64-2a.87.87,0,0,0,.09-.26s0-.05.07-.08l-.06,0,.22-.05c1.22-.54,7-1.7,8.75-2.08l.37-.08.07,0a131.88,131.88,0,0,1,14.86-2.81c19-3,32.9-2.44,40.73-1.3a42,42,0,0,1,8.5,1.88,10,10,0,0,1,1.41.6h0a5.82,5.82,0,0,1,2.33,2.13,7.15,7.15,0,0,1,.85,4.09v-1.71a7.15,7.15,0,0,0-.85-4.09" fill="#272525"/></g></g><g opacity="0.1"><g clip-path="url(#clip-path-9)"><path d="M272.59,273.71l0,102.73c0,1.24,2.48,2.28,5.85,2.58V276c-3.36-.3-5.84-1.33-5.83-2.33" fill="#272525"/></g></g><path d="M352.17,278.71c-7.55-1.1-21-1.61-39.23,1.25-3.47.46-9.53,1.7-12.67,2.36a2.55,2.55,0,0,0-2,2.49v20.75a2.55,2.55,0,0,0,3.1,2.49c7.42-1.62,15.4-3.88,24.6-4.44a127.93,127.93,0,0,1,27.47.89A2.55,2.55,0,0,0,356.3,302V281.51a2.55,2.55,0,0,0-2.13-2.51q-1-.16-2-.29" fill="#5d66d3"/><path d="M209,320.53a3.16,3.16,0,0,0,.13-.88c-.14-2.7-1.82-4-2.69-6.56-.39-1.14,1.52-3.56-.91-4.17s-7.39-.2-9.1-2.51c-.75-1-1.68-2.36-2.91-2.05a2.49,2.49,0,0,0-1.08.7c-10.31,10-.29,22,10.95,21.61a4.53,4.53,0,0,0,2.37-.5,6.55,6.55,0,0,0,2.4-3.3,12.72,12.72,0,0,0,.84-2.34" fill="#b97262"/><path d="M189.23,322.33a6.66,6.66,0,0,1-7.44-2.16,9.92,9.92,0,0,1-1.79-7.85,20.12,20.12,0,0,1,3.27-7.57c1.79-2.75,4.05-5.39,7.11-6.55a16.08,16.08,0,0,1,5.39-.84,4.76,4.76,0,0,1,3.49.9,4.56,4.56,0,0,1,1.08,2.38c1.23,5.61.26,6.43-3.41,10.16a44.27,44.27,0,0,0-7.71,11.53" fill="#fff"/><path d="M461.49,116a2.83,2.83,0,0,1-.59-.46c-1.45-1.64-1.1-3.19-2-5.08-.39-.84-3-1.38-1.79-2.86.46-.54,1.82-1.74,2.81-2.89,1.81-2.1.12-5.15,2-7.51,1.62-2,7.47-3.9,9.52-.92.77,1.12-.3,2.92-.13,4.13.25,1.86,1.75,3.11,2.43,4.84a13.74,13.74,0,0,1,.85,5.26c-.18,3.14-3.35,4.8-5.94,6.49a4,4,0,0,1-1.84.8,6.67,6.67,0,0,1-3.46-.82,12.26,12.26,0,0,1-1.89-1" fill="#efbfa5"/><path d="M478.23,107.08a6.52,6.52,0,0,0,3.24-6.86,9.72,9.72,0,0,0-4.61-6.4,19.7,19.7,0,0,0-7.67-2.51c-3.18-.47-6.58-.52-9.42,1a15.74,15.74,0,0,0-4.11,3.41,4.67,4.67,0,0,0-1.6,3.15,4.47,4.47,0,0,0,1,2.34c3.32,4.54,4.55,4.36,9.67,4.08a43.35,43.35,0,0,1,13.46,1.82" fill="#8cabef"/><path d="M349.25,111.47a2.83,2.83,0,0,0,.65-.35c1.7-1.38,1.61-3,2.79-4.69.53-.77,3.22-.86,2.23-2.52-.36-.61-1.51-2-2.3-3.31-1.44-2.37.73-5.1-.75-7.73-1.27-2.27-6.73-5.07-9.24-2.47-.94,1-.18,2.93-.55,4.1-.55,1.8-2.24,2.78-3.19,4.37a13.74,13.74,0,0,0-1.7,5c-.34,3.12,2.52,5.28,4.8,7.37a4,4,0,0,0,1.69,1.1,6.67,6.67,0,0,0,3.55-.24,12.27,12.27,0,0,0,2-.66" fill="#efbfa5"/><path d="M334.21,99.9a6.52,6.52,0,0,1-2.07-7.3,9.72,9.72,0,0,1,5.6-5.56,19.69,19.69,0,0,1,8-1.22c3.21.06,6.57.57,9.14,2.5a15.73,15.73,0,0,1,3.5,4,4.67,4.67,0,0,1,1.06,3.36A4.46,4.46,0,0,1,358,97.88c-4,3.94-5.2,3.56-10.21,2.44a43.36,43.36,0,0,0-13.58-.41" fill="#8cabef"/></g></g></svg>