<svg xmlns="http://www.w3.org/2000/svg" xmlns:xlink="http://www.w3.org/1999/xlink" viewBox="0 0 634.77 650.69"><defs><linearGradient id="linear-gradient" x1="317.89" y1="748.76" x2="316.82" y2="205.43" gradientUnits="userSpaceOnUse"><stop offset="0" stop-color="#00acc1"/><stop offset="1" stop-color="#90f3bf" stop-opacity="0.3"/></linearGradient><linearGradient id="linear-gradient-2" x1="525.77" y1="190.25" x2="538.53" y2="190.25" gradientUnits="userSpaceOnUse"><stop offset="0" stop-color="#1ae5ff"/><stop offset="1" stop-color="#eaeeee"/></linearGradient><linearGradient id="linear-gradient-3" x1="432.47" y1="144.53" x2="439.91" y2="144.53" xlink:href="#linear-gradient-2"/><linearGradient id="linear-gradient-4" x1="40.13" y1="360.11" x2="47.57" y2="360.11" xlink:href="#linear-gradient-2"/><linearGradient id="linear-gradient-5" x1="549.96" y1="411.94" x2="557.4" y2="411.94" xlink:href="#linear-gradient-2"/><linearGradient id="linear-gradient-6" x1="166.65" y1="274.78" x2="174.1" y2="274.78" xlink:href="#linear-gradient-2"/><linearGradient id="linear-gradient-7" x1="285.17" y1="464.05" x2="246.45" y2="197.29" gradientUnits="userSpaceOnUse"><stop offset="0" stop-color="#3c0aff"/><stop offset="1" stop-color="#b84fff"/></linearGradient><linearGradient id="linear-gradient-8" x1="234.19" y1="367.01" x2="232.06" y2="509.83" gradientUnits="userSpaceOnUse"><stop offset="0" stop-color="#fe9300"/><stop offset="1" stop-color="#fec800"/></linearGradient><linearGradient id="linear-gradient-9" x1="216.13" y1="515.99" x2="204.97" y2="366.87" gradientUnits="userSpaceOnUse"><stop offset="0" stop-color="#0067ff"/><stop offset="1" stop-color="#36ffff"/></linearGradient><linearGradient id="linear-gradient-10" x1="400.92" y1="797.22" x2="314.8" y2="185.84" gradientUnits="userSpaceOnUse"><stop offset="0" stop-color="#00acc1"/><stop offset="1" stop-color="#4de4ad"/></linearGradient><linearGradient id="linear-gradient-11" x1="230.38" y1="876.08" x2="209.11" y2="189.21" xlink:href="#linear-gradient-7"/><linearGradient id="linear-gradient-12" x1="542.28" y1="224.26" x2="570.2" y2="312.76" gradientTransform="translate(54.95 -70.15) rotate(13.36)" gradientUnits="userSpaceOnUse"><stop offset="0" stop-color="#fff"/><stop offset="1" stop-color="#a3a1a1"/></linearGradient><linearGradient id="linear-gradient-13" x1="510.7" y1="359.66" x2="514.95" y2="294.8" gradientTransform="translate(-71.08 127.83) rotate(-13.36)" xlink:href="#linear-gradient-8"/><linearGradient id="linear-gradient-14" x1="456.98" y1="346.74" x2="458.58" y2="311.12" gradientTransform="translate(83.52 -79.15) rotate(10.95)" xlink:href="#linear-gradient-9"/><linearGradient id="linear-gradient-15" x1="462.61" y1="346.99" x2="464.2" y2="311.37" gradientTransform="translate(83.42 -80.25) rotate(10.95)" xlink:href="#linear-gradient-9"/><linearGradient id="linear-gradient-16" x1="456.98" y1="346.74" x2="458.58" y2="311.12" gradientTransform="translate(83.54 -79.17) rotate(10.95)" xlink:href="#linear-gradient-9"/><linearGradient id="linear-gradient-17" x1="476.72" y1="270.96" x2="474.58" y2="348.53" gradientTransform="translate(994.93 528.05) rotate(170.61)" xlink:href="#linear-gradient-7"/><linearGradient id="linear-gradient-18" x1="471.71" y1="270.88" x2="469.58" y2="348.32" gradientTransform="translate(984.9 527.23) rotate(170.61)" xlink:href="#linear-gradient-7"/><linearGradient id="linear-gradient-19" x1="476.71" y1="271.01" x2="474.58" y2="348.47" gradientTransform="translate(994.92 528.08) rotate(170.61)" xlink:href="#linear-gradient-7"/><linearGradient id="linear-gradient-20" x1="462.4" y1="383.23" x2="463.99" y2="308.8" gradientTransform="translate(981.48 691.77) rotate(170.61)" gradientUnits="userSpaceOnUse"><stop offset="0" stop-color="#fe3400"/><stop offset="1" stop-color="#fec800"/></linearGradient><linearGradient id="linear-gradient-21" x1="456.66" y1="383.11" x2="458.26" y2="308.68" gradientTransform="translate(969.97 690.82) rotate(170.61)" xlink:href="#linear-gradient-20"/><linearGradient id="linear-gradient-22" x1="462.4" y1="383.23" x2="463.99" y2="308.8" gradientTransform="translate(981.47 691.78) rotate(170.61)" xlink:href="#linear-gradient-20"/><linearGradient id="linear-gradient-23" x1="515.37" y1="631.35" x2="455.83" y2="167.77" xlink:href="#linear-gradient-7"/><linearGradient id="linear-gradient-24" x1="445.44" y1="752.21" x2="529.44" y2="208.89" gradientUnits="userSpaceOnUse"><stop offset="0" stop-color="#3c0aff"/><stop offset="1" stop-color="#e261ff"/></linearGradient></defs><title>bgloginPage</title><g style="isolation:isolate"><g id="Layer_2" data-name="Layer 2"><g id="Layer_1-2" data-name="Layer 1"><path d="M634.77,492.29c-5.32-32.61-13.82-70.21-26.92-95.1-27.59-52.4-51.58-23.29-115.15,11.65s-42-231-115.15-287.25S263.6,181.74,215.62,267.14s-69.57,44.64-135.54,25.23C19.28,274.49,2.29,462.71,0,492.29Z" fill="url(#linear-gradient)"/><rect x="313.65" y="129.11" width="13.03" height="28.71" fill="#ffb300"/><rect x="304.35" y="153.57" width="32.96" height="8.51" fill="#ffa000"/><rect x="313.12" y="153.57" width="15.42" height="8.51" fill="#ffb300"/><rect x="287.07" y="162.07" width="67.52" height="6.11" fill="#ffa000"/><rect x="305.04" y="162.07" width="31.58" height="6.11" fill="#ffef80"/><path d="M330.92,127.79l.2-.34q.3-.51.55-1.05l.12-.24a11.86,11.86,0,0,0,.49-1.36c0-.11.06-.23.09-.34q.15-.55.24-1.13c0-.14,0-.28.06-.42s0-.23,0-.35h1.39v-3H307.54v3h1.39A12,12,0,0,0,326.46,132h0a12,12,0,0,0,1.23-.77l.27-.2q.47-.35.89-.74l.25-.22a12,12,0,0,0,1-1.05l.09-.12A12,12,0,0,0,330.92,127.79Z" fill="#ff7d21"/><path d="M375.59,67.18a54.76,54.76,0,1,1-109.52,0Z" fill="#ffa000"/><path d="M346.61,115.49a54.74,54.74,0,0,0,29-48.31H317.64A54.74,54.74,0,0,0,346.61,115.49Z" fill="#ffb300"/><rect x="259.96" y="58.67" width="121.74" height="13.82" fill="#ffcb5d"/><rect x="296.37" y="58.67" width="48.91" height="13.82" fill="#ffef80"/><circle cx="130.24" cy="250.85" r="6.38" fill="#b84fff"/><circle cx="568.57" cy="353.73" r="5.32" fill="#b84fff"/><circle cx="382.23" cy="137.62" r="3.19" fill="#b84fff"/><circle cx="160.01" cy="200.35" r="3.19" fill="#b84fff"/><circle cx="532.15" cy="190.25" r="6.38" fill="url(#linear-gradient-2)"/><circle cx="436.19" cy="144.53" r="3.72" fill="url(#linear-gradient-3)"/><circle cx="43.85" cy="360.11" r="3.72" fill="url(#linear-gradient-4)"/><circle cx="553.68" cy="411.94" r="3.72" fill="url(#linear-gradient-5)"/><circle cx="170.38" cy="274.78" r="3.72" fill="url(#linear-gradient-6)"/><path d="M111.79,311H422.37a6.11,6.11,0,0,1,6.11,6.11v44.47a8.92,8.92,0,0,1-8.92,8.92h-305a8.92,8.92,0,0,1-8.92-8.92V317.07a6.11,6.11,0,0,1,6.11-6.11Z" fill="url(#linear-gradient-7)"/><path d="M105.69,353.15H428.48a0,0,0,0,1,0,0v12.66a4.65,4.65,0,0,1-4.65,4.65H110.34a4.65,4.65,0,0,1-4.65-4.65V353.15A0,0,0,0,1,105.69,353.15Z" fill="#8b39ff"/><rect x="138.61" y="310.97" width="12.99" height="59.5" fill="#fff5d4"/><rect x="138.61" y="353.15" width="12.99" height="17.31" fill="#e5d5b9"/><rect x="371.9" y="310.97" width="28.75" height="59.5" fill="#fff5d4"/><rect x="371.9" y="353.15" width="28.75" height="17.31" fill="#e5d5b9"/><rect x="156.24" y="310.97" width="4.79" height="59.5" fill="#fff5d4"/><rect x="156.24" y="353.15" width="4.79" height="17.31" fill="#e5d5b9"/><rect x="180.82" y="329.74" width="174.38" height="15.68" fill="#fff5d4"/><path d="M78.5,370.46H389.08a6.11,6.11,0,0,1,6.11,6.11v34.91a8.92,8.92,0,0,1-8.92,8.92h-305a8.92,8.92,0,0,1-8.92-8.92V376.57A6.11,6.11,0,0,1,78.5,370.46Z" fill="url(#linear-gradient-8)"/><path d="M72.39,406.79H395.18a0,0,0,0,1,0,0v9a4.65,4.65,0,0,1-4.65,4.65H77a4.65,4.65,0,0,1-4.65-4.65v-9A0,0,0,0,1,72.39,406.79Z" fill="#ffcb5d"/><rect x="136.71" y="385.69" width="201.9" height="13.84" fill="#ffcb5d"/><path d="M84.93,478V434.85a4.71,4.71,0,0,1,4.71-4.71H368.22a4.72,4.72,0,0,0,4.71-4.72h0a4.71,4.71,0,0,0-4.71-4.71H58.64a8.5,8.5,0,0,0-8.5,8.5v54.42a8.5,8.5,0,0,0,8.5,8.5H368.22a4.72,4.72,0,0,0,4.71-4.72h0a4.72,4.72,0,0,0-4.71-4.71H89.64A4.71,4.71,0,0,1,84.93,478Z" fill="url(#linear-gradient-9)"/><path d="M72.92,430.13H364.28a0,0,0,0,1,0,0V482.7a0,0,0,0,1,0,0H72.92a9.79,9.79,0,0,1-9.79-9.79v-33A9.79,9.79,0,0,1,72.92,430.13Z" fill="#fff"/><path d="M63.13,465.07v2A15.61,15.61,0,0,0,78.74,482.7H364.28V465.07Z" fill="#f1eeeb"/><rect x="180.98" y="312.28" width="83.46" height="179.15" fill="#1ab8ff" opacity="0.53" style="mix-blend-mode:multiply"/><rect x="230.5" y="180.7" width="250.37" height="311.3" rx="8.55" ry="8.55" fill="#1ab8ff"/><rect x="242.18" y="189.63" width="225.89" height="293.16" rx="7.71" ry="7.71" fill="#f2f8fd"/><rect x="383.5" y="189.63" width="67.88" height="293.16" fill="#deeee9"/><path d="M428.85,167.07H229.39V492H428.85a13.63,13.63,0,0,0,13.63-13.63V180.7A13.63,13.63,0,0,0,428.85,167.07Z" fill="url(#linear-gradient-10)"/><path d="M234.39,167.07H205.74a13.63,13.63,0,0,0-13.63,13.63V478.36A13.63,13.63,0,0,0,205.74,492h28.65Z" fill="url(#linear-gradient-11)"/><rect x="254.42" y="249.69" width="157.73" height="36.72" rx="7.85" ry="7.85" fill="#f2f8fd"/><rect x="285.02" y="298.1" width="93.21" height="21.7" rx="4.64" ry="4.64" fill="#f2f8fd"/><path d="M408.65,351.44l6.41,140.16c0,.13,0,.26,0,.39h13.75a13.63,13.63,0,0,0,13.63-13.63V351.44Z" fill="#1ab8ff" opacity="0.44" style="mix-blend-mode:multiply"/><rect x="511.38" y="321" width="14.18" height="23.05" transform="translate(90.87 -110.81) rotate(13.36)" fill="#b0bec5"/><rect x="517.32" y="321.7" width="8.16" height="23.05" transform="translate(91.11 -111.46) rotate(13.36)" fill="#cfd8dc"/><path d="M512.6,326.56A41.46,41.46,0,0,0,526.35,330L528,323l-13.8-3.28Z" fill="#b0bec5"/><circle cx="531.33" cy="281.46" r="44.68" transform="translate(134.7 733.37) rotate(-76.64)" fill="#1ae5ff"/><circle cx="531.33" cy="281.46" r="33.33" transform="translate(134.71 733.37) rotate(-76.64)" fill="#fff"/><path d="M564.35,277.21a33.31,33.31,0,1,0-66,9.15,36.12,36.12,0,0,0,66-9.15Z" fill="url(#linear-gradient-12)"/><rect x="500.27" y="331.02" width="19.86" height="72.69" transform="translate(98.7 -107.95) rotate(13.36)" fill="url(#linear-gradient-13)"/><rect x="514.43" y="332.68" width="5.5" height="72.69" transform="translate(99.24 -109.5) rotate(13.36)" fill="#ff7d21"/><path d="M443.71,313l-9.79,1.89a1.66,1.66,0,0,1-1.75-2l2.26-14.57a1.46,1.46,0,0,1,1.11-1.26h0a1.46,1.46,0,0,1,1.5.76l7.53,12.67A1.66,1.66,0,0,1,443.71,313Z" fill="#37474f"/><rect x="461.14" y="470.21" width="18.54" height="13.88" rx="0.67" ry="0.67" transform="translate(-82.05 98.02) rotate(-10.95)" fill="#7986cb"/><rect x="471.15" y="469.25" width="8.44" height="13.88" rx="0.45" ry="0.45" transform="translate(-81.77 98.92) rotate(-10.95)" fill="#3949ab"/><rect x="465.64" y="470.21" width="9.55" height="13.88" rx="0.48" ry="0.48" transform="translate(-82.06 98.03) rotate(-10.95)" fill="#5c6bc0"/><rect x="445.49" y="317.71" width="18.54" height="157.08" transform="translate(-66.98 93.58) rotate(-10.95)" fill="#eceff1"/><rect x="458.29" y="316.48" width="5.63" height="157.08" transform="translate(-66.63 94.76) rotate(-10.95)" fill="#b0bec5"/><rect x="450.03" y="317.71" width="9.46" height="157.08" transform="translate(-66.97 93.57) rotate(-10.95)" fill="#cfd8dc"/><rect x="445.49" y="322.57" width="18.54" height="147.35" transform="translate(-66.97 93.57) rotate(-10.95)" fill="url(#linear-gradient-14)"/><rect x="456.98" y="321.47" width="6.95" height="147.35" transform="translate(-66.66 94.63) rotate(-10.95)" fill="url(#linear-gradient-15)"/><rect x="450.02" y="322.57" width="9.49" height="147.35" transform="translate(-66.99 93.59) rotate(-10.95)" fill="url(#linear-gradient-16)"/><polygon points="442.11 305.67 432.73 307.48 430.75 320.9 448.95 317.38 442.11 305.67" fill="#ffcc80"/><polygon points="439.85 319.14 448.95 317.38 442.11 305.67 437.42 306.57 439.85 319.14" fill="#ffa000"/><polygon points="439.81 306.11 435.03 307.04 435.2 320.04 444.5 318.24 439.81 306.11" fill="#ffb300"/><path d="M443.76,468.1l9.84,1.63a1.66,1.66,0,0,1,.94,2.5l-7.18,12.87a1.46,1.46,0,0,1-1.48.8h0a1.46,1.46,0,0,1-1.15-1.23l-2.65-14.5A1.66,1.66,0,0,1,443.76,468.1Z" fill="#37474f"/><rect x="466.51" y="297.94" width="18.54" height="13.88" rx="0.67" ry="0.67" transform="translate(895.44 683.31) rotate(-170.61)" fill="url(#linear-gradient-17)"/><rect x="466.58" y="297.12" width="8.44" height="13.88" rx="0.45" ry="0.45" transform="translate(885.68 680.86) rotate(-170.61)" fill="url(#linear-gradient-18)"/><rect x="471.01" y="297.94" width="9.55" height="13.88" rx="0.48" ry="0.48" transform="translate(895.46 683.28) rotate(-170.61)" fill="url(#linear-gradient-19)"/><rect x="453.06" y="307.65" width="18.54" height="157.08" transform="translate(855.47 842.62) rotate(-170.61)" fill="#eceff1"/><rect x="453.15" y="306.59" width="5.63" height="157.08" transform="translate(843.01 839.47) rotate(-170.61)" fill="#b0bec5"/><rect x="457.6" y="307.65" width="9.46" height="157.08" transform="translate(855.48 842.62) rotate(-170.61)" fill="#cfd8dc"/><rect x="453.06" y="312.51" width="18.54" height="147.35" transform="translate(855.47 842.62) rotate(-170.61)" fill="url(#linear-gradient-20)"/><rect x="453.14" y="311.56" width="6.95" height="147.35" transform="translate(844.27 839.81) rotate(-170.61)" fill="url(#linear-gradient-21)"/><rect x="457.59" y="312.51" width="9.49" height="147.35" transform="translate(855.48 842.61) rotate(-170.61)" fill="url(#linear-gradient-22)"/><polygon points="442.72 475.52 452.14 477.07 458.67 465.18 440.38 462.16 442.72 475.52" fill="#ffcc80"/><polygon points="449.52 463.67 440.38 462.16 442.72 475.52 447.43 476.3 449.52 463.67" fill="#ffa000"/><polygon points="445.03 475.9 449.84 476.69 454.19 464.44 444.85 462.9 445.03 475.9" fill="#ffb300"/><path d="M521.85,492.16H445.2a14.58,14.58,0,0,1-14.56-13.91l-6.41-140.16H542.82l-6.41,140.16A14.58,14.58,0,0,1,521.85,492.16Z" fill="url(#linear-gradient-23)"/><path d="M467.37,452.66a14.58,14.58,0,0,0,14.56,13.91h55l5.88-128.48h-80.7Z" fill="url(#linear-gradient-24)"/><path d="M117.28,349.74s7.38-4,8-2.39-8,5.78-9,5.78-.4-2.19-.4-2.19Z" fill="#ffb300"/><path d="M95.51,366s7.87,2.51,7.61,3.52-10.1-.13-10.23-1.38,1-3,1.84-2.89A.82.82,0,0,1,95.51,366Z" fill="#ffb300"/><path d="M78.14,319.3S85,337.64,88.77,343s3.72,23.39,3.72,23.39H97s1.59-19.14-.53-26.32-6.65-20.73-6.65-20.73Z" fill="#424242"/><path d="M85.88,328.37a93.27,93.27,0,0,1,10.68,4.92c5.5,3,8,4.16,8.49,4.94s7.55,12,9.35,13a2.61,2.61,0,0,0,3.78-2.5c-.2-1.81-6.13-14-8.43-16s-13.55-11.85-18-12.41S84,326.34,85.88,328.37Z" fill="#424242"/><path d="M85.26,292a10.85,10.85,0,0,1,6.23,5.61c2,4.36,5.48,17.94,4.61,24.3-.87,3.86-14,2.87-17.69-.75-.5-2.87-2.62-13.58-.37-24.3C78.53,294.25,81.27,292,85.26,292Z" fill="#ff5345"/><path d="M82.51,279.05s3.8,3.86,3.43,7.85c-.56,3.3-1.93,3.55.12,5.73a3.37,3.37,0,0,1-4.49.75s1.37-1.62-1-3c-1.79-1-4.61-4.49-5-7.48s1.12-4.24,3.11-4.73S82,278.3,82.51,279.05Z" fill="#ffcc80"/><path d="M82.35,300.19s-7.45,8.89-14.49,10.92c-4.48-.77,9.06-14.66,12.33-14.57S82.35,300.19,82.35,300.19Z" fill="#ff5345"/><path d="M79.25,315.08a1.81,1.81,0,0,0,1.6.45,4.59,4.59,0,0,1,3.16.4c.6.47-1.27.44-1.27.44s3.22.47,3.21.78-2.36,1.2-3.67,1.07-2-1.34-3.29-1.65Z" fill="#ffcc80"/><path d="M68.31,309s7.48,2.6,11.67,6.29l-.82,1.58a34,34,0,0,1-9.08-3.18C66.32,311.53,66.45,308.92,68.31,309Z" fill="#ff5345"/><path d="M111.11,307.16a3,3,0,0,0,1.8-.24c.69-.43,2.68-1.36,2.91-1s-.8,1-.8,1,1.74-.22,2.07.37-1,2.84-2.11,2.7-2.37-1.31-3-1.44l-1-.19Z" fill="#ffcc80"/><path d="M85.94,297.76s7.29,9,14.29,11.17c4.49-.69-8.8-14.81-12.07-14.79S85.94,297.76,85.94,297.76Z" fill="#ff5345"/><path d="M98.88,305.8s7.91-.53,13.21,1.22l-.14,1.78a34,34,0,0,1-9.6.63C98,308.9,97.12,306.45,98.88,305.8Z" fill="#ff5345"/><path d="M83,282.26s1.59,2.52,1.21,3-2.15.75-2.24.37,1.4-1,1.4-1S82,281.7,83,282.26Z" fill="#ff8a65"/><path d="M76,278.84s4.32-6,6.74-4,3.27,3.58-1.48,5.37-4.32,3-3.27,5,1.9,2.53,1.05,2.74-1.24-3.06-2.29-2.85,1.55,3,1.77,3-3.48-.24-4.32-3.4.32-3,.32-3S73.41,280,76,278.84Z" fill="#424242"/><path d="M274.9,405.16s3.21-2.88,6.09.16-1.44,6.57,1.92,7.85,5.77,1.44,4.81,5.45-2.88,5.77-1.92,8.81-3,6.25-6.89,4.81-6.57.16-10.26,3-9.94-1.12-8-6.09,5.93-4.33,4.81-9.29-4.33-9.29-.64-13S274.9,405.16,274.9,405.16Z" fill="#f76a1e"/><path d="M290.61,454.85s.81,9.76-1.63,13.42-22.77,6.71-24,4.88,4.88-3.46,9.35-5.08,8.74-5.29,7.73-12.2S290.61,454.85,290.61,454.85Z" fill="#ffa812"/><path d="M273.26,448.23a37.64,37.64,0,0,1,4.38,16c.66,7.89-9.86,24.1-9,27.6.88,3.29,12.93-11.61,15.55-20.15s.88-19.94-.88-23.22S273.26,448.23,273.26,448.23Z" fill="#ffcc80"/><path d="M266.42,491.65s-.95.88-.95,1.42,1.08,1.36,1.63,2.64a18.22,18.22,0,0,0,4.47,6c1.63,1.22,1.86,1.15,1.86,1.15l.71-.75s-5.08-6.44-5.29-6.64S266.42,491.65,266.42,491.65Z" fill="#f5f5f5"/><path d="M268.18,492.19c.47,1.42,2.41,3.32,3.65,2.41a8.4,8.4,0,0,1-.22-3.76s-1.4-1.94-2.54-1.68C269.06,489.16,267.71,490.77,268.18,492.19Z" fill="#ffcc80"/><path d="M271.83,494.6c-1.23.91-3.17-1-3.65-2.41a3.31,3.31,0,0,1,.63-2.69c-1.14.43-2.71,2-2.8,2.8s.88,1.52,2,3.7c1,2,5.1,6.59,5.84,6.32a2.33,2.33,0,0,0,.88-1.41C274.77,498.62,272.44,495.92,271.83,494.6Z" fill="#f76a1e"/><path d="M263.71,471.79s-1.23.4-1.46.89.41,1.69.36,3.08a18.22,18.22,0,0,0,1.54,7.29c1,1.79,1.2,1.83,1.2,1.83l1-.38s-1.9-8-2-8.25S263.71,471.79,263.71,471.79Z" fill="#f5f5f5"/><path d="M265.08,473c-.17,1.49.79,4,2.29,3.72a8.4,8.4,0,0,1,1.38-3.51s-.45-2.35-1.6-2.59C267.16,470.65,265.25,471.54,265.08,473Z" fill="#ffa812"/><path d="M267.37,476.75c-1.5.31-2.46-2.23-2.29-3.72a3.3,3.3,0,0,1,1.7-2.17c-1.22-.09-3.32.72-3.72,1.36s.16,1.74.28,4.21c0,2.19,1.84,8.13,2.64,8.19a2.33,2.33,0,0,0,1.39-.91C268.35,481.64,267.37,478.2,267.37,476.75Z" fill="#f76a1e"/><path d="M271.75,441.16s-2.14,1.71-1.92,6.41-4.49,11.11-8.12,13,1.5,4.91,4.7,4.49,4.49.21,8.12,4.27,7.05-2.35,11.54,0a9.26,9.26,0,0,0,11.75-2.14c2.56-3.21,6.41-2.78,6.84-5.56s-7.26-6.41-10.47-11.75-3.21-8.55-5.13-9.61S271.75,441.16,271.75,441.16Z" fill="#f76a1e"/><path d="M279.87,421.71s6.79-4.45,12.58-5.2c4.38.12,2,4.22-1.21,6.56C285.41,427.35,277.19,425.87,279.87,421.71Z" fill="#1e60cf"/><path d="M278.89,418.8s3.93.41,5.15,2,1.22,3.25,2.58,5.29-.68,3.79.27,6.78.54,3.12,2.3,5.83,0,3.93-2.17,5.29-12.47,1.76-14.91-1.22-.41-3.66.27-6,.41-6.64,0-10.57.81-5.83,3.66-6.91S278.89,418.8,278.89,418.8Z" fill="#1e60cf"/><path d="M254,431.38a2,2,0,0,1-1.76-.5,5.06,5.06,0,0,0-3.2-1.45c-.83.09.94,1.14.94,1.14s-3.29-1.42-3.46-1.12,1.53,2.49,2.82,3.12,2.64-.11,4,.34Z" fill="#ffcc80"/><path d="M304.93,411.56s1.12-.33,1.32-1.26a5.06,5.06,0,0,1,2.15-2.77c.78-.31-.29,1.45-.29,1.45s2.24-2.79,2.53-2.61-.19,2.91-1,4.08-2.39,1.14-3.41,2.19Z" fill="#ffcc80"/><path d="M277,404.87s4.18,4.25,3.77,8.64c-.62,3.64-2.13,3.91.14,6.31,0,0-1.72,2.47-4.94.82,0,0,1.51-1.78-1.1-3.29-2-1.14-5.08-4.94-5.49-8.23s1.23-4.66,3.43-5.21S276.42,404.05,277,404.87Z" fill="#ffcc80"/><path d="M277.58,408.41s1.75,2.78,1.34,3.29-2.37.82-2.47.41S278,411,278,411,276.45,407.79,277.58,408.41Z" fill="#ff8a65"/><path d="M273.33,421.24s-6.78,4.47-9.76,9.49c-1.63,4.07,3.09,3.49,6.51,1.49C276.32,428.56,278.21,420.43,273.33,421.24Z" fill="#1e60cf"/><path d="M264.93,431.21c-.46,0-10-.62-12.15.31-1.69.92,1.85,3.08,5.23,3.54s10.46-.62,12.3-3.23S264.93,431.21,264.93,431.21Z" fill="#1e60cf"/><path d="M293.17,416.22c.41-.2,10-4.88,12.32-5,1.93.08-.25,3.65-3.14,5.48-8.86,5.61-9.58,5.22-12.39,3.68S293.17,416.22,293.17,416.22Z" fill="#1e60cf"/><path d="M270.09,402.92s5.77-1.92,7.21,1.28-5.29,2.88-5.29,5.29,3.2,1.92,1.6,4.17,2.58,2,1,4-7.7-3.07-7.38-7.07S267,404.36,270.09,402.92Z" fill="#f76a1e"/><path d="M368.29,358.38a34,34,0,0,0-2.56-9.27l-.25,0c-.3-1.15.16-2.3-.43-3.35s-2.71-2.57-3-2.4,1.19,3.08,1.19,3.08-1-1.55-1.08-.79a4.59,4.59,0,0,0,1.47,2.83,1.38,1.38,0,0,1,.5.81l-.19,0a36.33,36.33,0,0,0,.89,10.68c-4.21-2.25-9.69-3.31-12.61-3.74a11.12,11.12,0,0,0-2.48-1.38c-1.41-1.75-.24-2.22.28-5.25.37-4-3.43-7.85-3.43-7.85l-.15-.16a1.23,1.23,0,0,0,.15-1.58c-2.79-1.86-8,1.73-8,1.73-3.72,3.06,1.86,10.23,3.85,10.1a.53.53,0,0,0,.41-.24,8.58,8.58,0,0,0,1.77,1.5c1.36.79,1.48,1.65,1.34,2.24a7.12,7.12,0,0,0-2,1.14A39.29,39.29,0,0,0,331.31,352c-.94-2.37-3.05-7.18-5.75-10.25l-.12.06a2,2,0,0,1-.1-.86c.13-.81.21-3-.23-3.06s-.57,1.11-.57,1.11-.48-1.68-1.15-1.76-2.21,2-1.67,3,2.08,1.65,2.49,2.21l-.24.13a34,34,0,0,0,3.17,9.08,8.87,8.87,0,0,0,1.46,1.92c3.35,3.83,9.66,6.51,13.18,7.77-1.68,10.1.23,19.8.7,22.51,0,0-5.73,23.23-7.21,30.82s-4,23-3.58,24.24a.94.94,0,0,0,.16.26c-1.44.63-7.25,3.25-7.15,4.65.12,1.59,3.84,1.42,6.34.36a11.4,11.4,0,0,0,3.24-2.12.84.84,0,0,0,1.3-.09c.57-.78,1.29-2.34.46-2.79a1.53,1.53,0,0,0-.33-.11c1.11-1,5.88-21.71,7.35-25.26.26-.63.72-1.85,1.31-3.44.71,4.93,5.74,17.81,7,19.32a2.85,2.85,0,0,0,1.79.91c-.39,1.08-2.69,7.63-1.55,8.55s3.66-1.84,4.6-4.38A11.4,11.4,0,0,0,357,431s1-.06.83-1a3.91,3.91,0,0,0-1-2.08c.06-3.6-3.49-17.31-3.79-18.28s.74-4.22,2.61-11.47a113.34,113.34,0,0,1,4.17-12.74,1.91,1.91,0,0,0,.43-.8c.74-5.4-1.67-16-3.63-21.74,5,1,10.56,1.2,11-.47A6.09,6.09,0,0,0,368.29,358.38Z" fill="#1ab8ff"/><path d="M329,433.89s-7.58,3.19-7.47,4.79,3.84,1.42,6.34.36a11.4,11.4,0,0,0,3.24-2.12.84.84,0,0,0,1.3-.09c.57-.78,1.29-2.34.46-2.79S329,433.89,329,433.89Z" fill="#fff"/><path d="M339.3,378.71s-5.73,23.23-7.21,30.82-4,23-3.58,24.24,3,.84,4,.21,5.9-21.71,7.38-25.29,9.48-26.14,9.48-28S342.08,376.77,339.3,378.71Z" fill="#424242"/><path d="M350.1,425.31s-2.85,7.72-1.61,8.72,3.66-1.84,4.6-4.38a11.4,11.4,0,0,0,.67-3.81s1-.06.83-1-.83-2.54-1.72-2.24S350.1,425.31,350.1,425.31Z" fill="#fff"/><path d="M356.81,379.63A111.68,111.68,0,0,0,352.39,393c-1.88,7.25-2.93,10.45-2.61,11.47s4.29,16.38,3.74,18.82-3.85,2.92-5.28,1.27-7.29-16.85-7.14-20.47.7-21.55,3.84-25.89S356.61,376.28,356.81,379.63Z" fill="#616161"/><path d="M346.15,349.56a10.85,10.85,0,0,1,6.23,5.61c2,4.36,5.48,17.94,4.61,24.3-.87,3.86-14,2.87-17.69-.75-.5-2.87-2.62-13.58-.37-24.3C339.43,351.8,342.17,349.56,346.15,349.56Z" fill="#db4fff"/><path d="M343.41,336.6s3.8,3.86,3.43,7.85c-.56,3.3-1.93,3.55.12,5.73a3.37,3.37,0,0,1-4.49.75s1.37-1.62-1-3c-1.79-1-4.61-4.49-5-7.48s1.12-4.24,3.11-4.73S342.85,335.85,343.41,336.6Z" fill="#ffcc80"/><path d="M347,350.83s11.54,1.05,17.23,5.68c1.92,4.12-17.21.91-19-1.82S347,350.83,347,350.83Z" fill="#db4fff"/><path d="M361,344.89a1.81,1.81,0,0,0-.54-1.57,4.59,4.59,0,0,1-1.47-2.83c0-.76,1.08.79,1.08.79s-1.45-2.91-1.19-3.08,2.33,1.26,3,2.4,0,2.4.52,3.64Z" fill="#ffcc80"/><path d="M362.25,357.33s-2.13-7.63-1.48-13.18l1.77-.23a34,34,0,0,1,2.56,9.27C365.46,357.53,363.24,358.92,362.25,357.33Z" fill="#db4fff"/><path d="M322.64,337.55a3,3,0,0,1-.48-1.75c.13-.81.21-3-.23-3.06s-.57,1.11-.57,1.11-.48-1.68-1.15-1.76-2.21,2-1.67,3,2.13,1.67,2.51,2.24l.57.85Z" fill="#ffcc80"/><path d="M341.13,357s-11.15-3.19-15.87-8.79c-1.12-4.41,17.07,2.31,18.33,5.33S341.13,357,341.13,357Z" fill="#db4fff"/><path d="M328.67,348.28s-2.6-7.49-6.29-11.68l-1.58.82A34,34,0,0,0,324,346.5C326.14,350.27,328.75,350.14,328.67,348.28Z" fill="#db4fff"/><path d="M343.91,339.81s1.59,2.52,1.21,3-2.15.75-2.24.37,1.4-1,1.4-1S342.88,339.25,343.91,339.81Z" fill="#ff8a65"/><path d="M335.45,336.58s5.18-3.59,8-1.73c1.59,2.39-5.72,4.25-5.72,4.25s3.59,7.44,1.59,7.58S331.73,339.64,335.45,336.58Z" fill="#424242"/><rect x="307.54" y="197.16" width="4.78" height="304.63" fill="#ffb300"/><rect x="336.25" y="197.16" width="4.78" height="304.63" fill="#ffb300"/><rect x="310.2" y="210.45" width="27.11" height="4.25" fill="#ffb300"/><rect x="310.2" y="227.99" width="27.11" height="4.25" fill="#ffb300"/><rect x="310.2" y="245.54" width="27.11" height="4.25" fill="#ffb300"/><rect x="310.2" y="263.08" width="27.11" height="4.25" fill="#ffb300"/><rect x="310.2" y="280.63" width="27.11" height="4.25" fill="#ffb300"/><rect x="310.2" y="298.17" width="27.11" height="4.25" fill="#ffb300"/><rect x="310.2" y="315.71" width="27.11" height="4.25" fill="#ffb300"/><rect x="310.2" y="333.26" width="27.11" height="4.25" fill="#ffb300"/><rect x="310.2" y="350.8" width="27.11" height="4.25" fill="#ffb300"/><rect x="310.2" y="368.35" width="27.11" height="4.25" fill="#ffb300"/><rect x="310.2" y="385.89" width="27.11" height="4.25" fill="#ffb300"/><rect x="310.2" y="403.43" width="27.11" height="4.25" fill="#ffb300"/><rect x="310.2" y="420.98" width="27.11" height="4.25" fill="#ffb300"/><rect x="310.2" y="438.52" width="27.11" height="4.25" fill="#ffb300"/><rect x="310.2" y="456.06" width="27.11" height="4.25" fill="#ffb300"/><rect x="310.2" y="473.61" width="27.11" height="4.25" fill="#ffb300"/><path d="M408,88.79l1-3.8a1.11,1.11,0,0,1,2.14,0l1,3.8a1.11,1.11,0,0,0,.78.78l3.8,1a1.11,1.11,0,0,1,0,2.14l-3.8,1a1.11,1.11,0,0,0-.78.78l-1,3.8a1.11,1.11,0,0,1-2.14,0l-1-3.8a1.11,1.11,0,0,0-.78-.78l-3.8-1a1.11,1.11,0,0,1,0-2.14l3.8-1A1.11,1.11,0,0,0,408,88.79Z" fill="#fec800"/><path d="M272.06,135.39l.69-2.58a.75.75,0,0,1,1.45,0l.69,2.58a.75.75,0,0,0,.53.53l2.58.69a.75.75,0,0,1,0,1.45l-2.58.69a.75.75,0,0,0-.53.53l-.69,2.58a.75.75,0,0,1-1.45,0l-.69-2.58a.75.75,0,0,0-.53-.53l-2.58-.69a.75.75,0,0,1,0-1.45l2.58-.69A.75.75,0,0,0,272.06,135.39Z" fill="#fec800"/><path d="M232.66,44.32l.69-2.58a.75.75,0,0,1,1.45,0l.69,2.58a.75.75,0,0,0,.53.53l2.58.69a.75.75,0,0,1,0,1.45l-2.58.69a.75.75,0,0,0-.53.53l-.69,2.58a.75.75,0,0,1-1.45,0l-.69-2.58a.75.75,0,0,0-.53-.53L229.55,47a.75.75,0,0,1,0-1.45l2.58-.69A.75.75,0,0,0,232.66,44.32Z" fill="#fec800"/><path d="M322.06,2.11l4,8.06a3.79,3.79,0,0,0,2.85,2.07l8.9,1.3a3.79,3.79,0,0,1,2.1,6.46l-6.44,6.27a3.79,3.79,0,0,0-1.09,3.35l1.52,8.86a3.79,3.79,0,0,1-5.5,4l-8-4.19a3.79,3.79,0,0,0-3.53,0l-8,4.18a3.79,3.79,0,0,1-5.5-4l1.52-8.86a3.79,3.79,0,0,0-1.09-3.35L297.42,20a3.79,3.79,0,0,1,2.1-6.46l8.9-1.29a3.79,3.79,0,0,0,2.85-2.07l4-8.06A3.79,3.79,0,0,1,322.06,2.11Z" fill="#fec800"/><path d="M337.78,13.55l-8.9-1.3A3.79,3.79,0,0,1,326,10.18l-4-8.06A3.74,3.74,0,0,0,318.62,0V37.87a3.78,3.78,0,0,1,1.79.43l8,4.19a3.79,3.79,0,0,0,5.5-4l-1.52-8.86a3.79,3.79,0,0,1,1.09-3.35L339.88,20A3.79,3.79,0,0,0,337.78,13.55Z" fill="#fe9300"/><text transform="translate(93.2 624.58)" font-size="113" fill="#5b5b5b" font-family="Report, Report">Connexion</text><circle cx="429.4" cy="560.83" r="6.5" fill="#960909"/></g></g></g></svg>