<svg xmlns="http://www.w3.org/2000/svg" xmlns:xlink="http://www.w3.org/1999/xlink" viewBox="0 0 398 315.28"><defs><linearGradient id="linear-gradient" x1="199.31" y1="469.47" x2="198.65" y2="128.81" gradientUnits="userSpaceOnUse"><stop offset="0" stop-color="#00acc1"/><stop offset="1" stop-color="#90f3bf" stop-opacity="0.3"/></linearGradient><linearGradient id="linear-gradient-2" x1="329.66" y1="119.29" x2="337.66" y2="119.29" gradientUnits="userSpaceOnUse"><stop offset="0" stop-color="#1ae5ff"/><stop offset="1" stop-color="#eaeeee"/></linearGradient><linearGradient id="linear-gradient-3" x1="271.16" y1="90.62" x2="275.83" y2="90.62" xlink:href="#linear-gradient-2"/><linearGradient id="linear-gradient-4" x1="25.16" y1="225.79" x2="29.83" y2="225.79" xlink:href="#linear-gradient-2"/><linearGradient id="linear-gradient-5" x1="344.83" y1="258.29" x2="349.49" y2="258.29" xlink:href="#linear-gradient-2"/><linearGradient id="linear-gradient-6" x1="104.49" y1="172.29" x2="109.16" y2="172.29" xlink:href="#linear-gradient-2"/><linearGradient id="linear-gradient-7" x1="178.73" y1="289.99" x2="154.73" y2="124.65" gradientUnits="userSpaceOnUse"><stop offset="0" stop-color="#3c0aff"/><stop offset="1" stop-color="#b84fff"/></linearGradient><linearGradient id="linear-gradient-8" x1="146.83" y1="230.15" x2="145.5" y2="319.48" gradientUnits="userSpaceOnUse"><stop offset="0" stop-color="#fe9300"/><stop offset="1" stop-color="#fec800"/></linearGradient><linearGradient id="linear-gradient-9" x1="135.52" y1="323.52" x2="128.52" y2="230.03" gradientUnits="userSpaceOnUse"><stop offset="0" stop-color="#0067ff"/><stop offset="1" stop-color="#36ffff"/></linearGradient><linearGradient id="linear-gradient-10" x1="251.38" y1="499.85" x2="197.38" y2="116.52" gradientUnits="userSpaceOnUse"><stop offset="0" stop-color="#00acc1"/><stop offset="1" stop-color="#4de4ad"/></linearGradient><linearGradient id="linear-gradient-11" x1="144.45" y1="549.3" x2="131.11" y2="118.64" xlink:href="#linear-gradient-7"/><linearGradient id="linear-gradient-12" x1="335.02" y1="143.2" x2="352.52" y2="198.69" gradientTransform="translate(39.91 -45.35) rotate(13.36)" gradientUnits="userSpaceOnUse"><stop offset="0" stop-color="#fff"/><stop offset="1" stop-color="#a3a1a1"/></linearGradient><linearGradient id="linear-gradient-13" x1="320.21" y1="225.5" x2="322.88" y2="184.84" gradientTransform="translate(-44.57 80.15) rotate(-13.36)" xlink:href="#linear-gradient-8"/><linearGradient id="linear-gradient-14" x1="286.53" y1="217.41" x2="287.53" y2="195.07" gradientTransform="translate(52.37 -49.63) rotate(10.95)" xlink:href="#linear-gradient-9"/><linearGradient id="linear-gradient-15" x1="290.06" y1="217.56" x2="291.06" y2="195.23" gradientTransform="translate(52.3 -50.32) rotate(10.95)" xlink:href="#linear-gradient-9"/><linearGradient id="linear-gradient-16" x1="286.53" y1="217.41" x2="287.53" y2="195.07" gradientTransform="translate(52.38 -49.64) rotate(10.95)" xlink:href="#linear-gradient-9"/><linearGradient id="linear-gradient-17" x1="298.9" y1="170.02" x2="297.56" y2="218.36" gradientTransform="translate(623.82 331.09) rotate(170.61)" xlink:href="#linear-gradient-7"/><linearGradient id="linear-gradient-18" x1="295.76" y1="169.94" x2="294.43" y2="218.27" gradientTransform="translate(617.53 330.57) rotate(170.61)" xlink:href="#linear-gradient-7"/><linearGradient id="linear-gradient-19" x1="298.9" y1="170.02" x2="297.56" y2="218.36" gradientTransform="translate(623.81 331.11) rotate(170.61)" xlink:href="#linear-gradient-7"/><linearGradient id="linear-gradient-20" x1="289.92" y1="240.29" x2="290.92" y2="193.62" gradientTransform="translate(615.39 433.74) rotate(170.61)" gradientUnits="userSpaceOnUse"><stop offset="0" stop-color="#fe3400"/><stop offset="1" stop-color="#fec800"/></linearGradient><linearGradient id="linear-gradient-21" x1="286.33" y1="240.21" x2="287.33" y2="193.54" gradientTransform="translate(608.17 433.14) rotate(170.61)" xlink:href="#linear-gradient-20"/><linearGradient id="linear-gradient-22" x1="289.92" y1="240.29" x2="290.92" y2="193.62" gradientTransform="translate(615.38 433.74) rotate(170.61)" xlink:href="#linear-gradient-20"/><linearGradient id="linear-gradient-23" x1="323.14" y1="395.86" x2="285.8" y2="105.19" xlink:href="#linear-gradient-7"/><linearGradient id="linear-gradient-24" x1="279.29" y1="471.64" x2="331.96" y2="130.97" gradientUnits="userSpaceOnUse"><stop offset="0" stop-color="#3c0aff"/><stop offset="1" stop-color="#e261ff"/></linearGradient></defs><title>login_1</title><g style="isolation:isolate"><g id="Layer_2" data-name="Layer 2"><g id="OBJECTS"><path d="M398,308.66c-3.33-20.45-8.66-44-16.88-59.63-17.3-32.86-32.34-14.6-72.2,7.3S282.6,111.52,236.72,76.23,165.28,114,135.19,167.5s-43.62,28-85,15.82C12.09,172.1,1.43,290.12,0,308.66Z" fill="url(#linear-gradient)"/><rect x="196.66" y="80.95" width="8.17" height="18" fill="#ffb300"/><rect x="190.83" y="96.29" width="20.67" height="5.33" fill="#ffa000"/><rect x="196.33" y="96.29" width="9.67" height="5.33" fill="#ffb300"/><rect x="179.99" y="101.62" width="42.33" height="3.83" fill="#ffa000"/><rect x="191.26" y="101.62" width="19.8" height="3.83" fill="#ffef80"/><path d="M207.49,80.12l.13-.21q.19-.32.35-.66l.07-.15a7.44,7.44,0,0,0,.31-.85c0-.07,0-.14.06-.21q.09-.35.15-.71c0-.09,0-.17,0-.26s0-.14,0-.22h.87V75H192.83v1.89h.87a7.49,7.49,0,0,0,11,5.89h0a7.5,7.5,0,0,0,.77-.48l.17-.13q.29-.22.56-.46l.15-.14a7.53,7.53,0,0,0,.61-.66l.06-.07A7.51,7.51,0,0,0,207.49,80.12Z" fill="#ff7d21"/><path d="M235.49,42.12a34.33,34.33,0,1,1-68.67,0Z" fill="#ffa000"/><path d="M217.33,72.41a34.32,34.32,0,0,0,18.17-30.29H199.16A34.32,34.32,0,0,0,217.33,72.41Z" fill="#ffb300"/><rect x="162.99" y="36.79" width="76.33" height="8.67" fill="#ffcb5d"/><rect x="185.83" y="36.79" width="30.67" height="8.67" fill="#ffef80"/><circle cx="81.66" cy="157.29" r="4" fill="#b84fff"/><circle cx="356.49" cy="221.79" r="3.33" fill="#b84fff"/><circle cx="239.66" cy="86.29" r="2" fill="#b84fff"/><circle cx="100.33" cy="125.62" r="2" fill="#b84fff"/><circle cx="333.66" cy="119.29" r="4" fill="url(#linear-gradient-2)"/><circle cx="273.49" cy="90.62" r="2.33" fill="url(#linear-gradient-3)"/><circle cx="27.49" cy="225.79" r="2.33" fill="url(#linear-gradient-4)"/><circle cx="347.16" cy="258.29" r="2.33" fill="url(#linear-gradient-5)"/><circle cx="106.83" cy="172.29" r="2.33" fill="url(#linear-gradient-6)"/><path d="M72.37,195H262.55a6.11,6.11,0,0,1,6.11,6.11v22.28a8.92,8.92,0,0,1-8.92,8.92H75.18a8.92,8.92,0,0,1-8.92-8.92V201.08A6.11,6.11,0,0,1,72.37,195Z" fill="url(#linear-gradient-7)"/><path d="M66.27,221.42H268.65a0,0,0,0,1,0,0v6.2a4.65,4.65,0,0,1-4.65,4.65H70.92a4.65,4.65,0,0,1-4.65-4.65v-6.2A0,0,0,0,1,66.27,221.42Z" fill="#8b39ff"/><rect x="86.91" y="194.98" width="8.14" height="37.3" fill="#fff5d4"/><rect x="86.91" y="221.42" width="8.14" height="10.86" fill="#e5d5b9"/><rect x="233.18" y="194.98" width="18.03" height="37.3" fill="#fff5d4"/><rect x="233.18" y="221.42" width="18.03" height="10.86" fill="#e5d5b9"/><rect x="97.96" y="194.98" width="3" height="37.3" fill="#fff5d4"/><rect x="97.96" y="221.42" width="3" height="10.86" fill="#e5d5b9"/><rect x="113.37" y="206.74" width="109.34" height="9.83" fill="#fff5d4"/><path d="M51.5,232.28H241.67a6.11,6.11,0,0,1,6.11,6.11v16.28a8.92,8.92,0,0,1-8.92,8.92H54.31a8.92,8.92,0,0,1-8.92-8.92V238.39A6.11,6.11,0,0,1,51.5,232.28Z" fill="url(#linear-gradient-8)"/><path d="M45.39,255.06H247.78a0,0,0,0,1,0,0v3.88a4.65,4.65,0,0,1-4.65,4.65H50a4.65,4.65,0,0,1-4.65-4.65v-3.88A0,0,0,0,1,45.39,255.06Z" fill="#ffcb5d"/><rect x="85.71" y="241.83" width="126.59" height="8.68" fill="#ffcb5d"/><path d="M53.25,299.69v-27a3,3,0,0,1,3-3H230.87a3,3,0,0,0,3-3h0a3,3,0,0,0-3-3H36.77a5.33,5.33,0,0,0-5.33,5.33v34.12a5.33,5.33,0,0,0,5.33,5.33h194.1a3,3,0,0,0,3-3h0a3,3,0,0,0-3-3H56.2A3,3,0,0,1,53.25,299.69Z" fill="url(#linear-gradient-9)"/><path d="M49.37,269.69h179a0,0,0,0,1,0,0v33a0,0,0,0,1,0,0h-179a9.79,9.79,0,0,1-9.79-9.79V279.48a9.79,9.79,0,0,1,9.79-9.79Z" fill="#fff"/><path d="M39.58,291.6v1.26a9.79,9.79,0,0,0,9.79,9.79h179V291.6Z" fill="#f1eeeb"/><rect x="113.47" y="195.8" width="52.33" height="112.33" fill="#1ab8ff" opacity="0.53" style="mix-blend-mode:multiply"/><rect x="144.52" y="113.3" width="156.98" height="195.18" rx="8.55" ry="8.55" fill="#1ab8ff"/><rect x="151.85" y="118.9" width="141.63" height="183.81" rx="7.71" ry="7.71" fill="#f2f8fd"/><rect x="240.46" y="118.9" width="42.56" height="183.81" fill="#deeee9"/><path d="M268.89,104.75H143.82V308.48H268.89a8.55,8.55,0,0,0,8.55-8.55V113.3A8.55,8.55,0,0,0,268.89,104.75Z" fill="url(#linear-gradient-10)"/><path d="M147,104.75H129a8.55,8.55,0,0,0-8.55,8.55V299.93a8.55,8.55,0,0,0,8.55,8.55h18Z" fill="url(#linear-gradient-11)"/><rect x="159.52" y="156.56" width="98.9" height="23.02" rx="7.85" ry="7.85" fill="#f2f8fd"/><rect x="178.71" y="186.91" width="58.44" height="13.61" rx="4.64" ry="4.64" fill="#f2f8fd"/><path d="M256.22,220.35l4,87.88c0,.08,0,.16,0,.25h8.62a8.55,8.55,0,0,0,8.55-8.55V220.35Z" fill="#1ab8ff" opacity="0.44" style="mix-blend-mode:multiply"/><rect x="320.63" y="201.27" width="8.89" height="14.45" transform="translate(56.98 -69.48) rotate(13.36)" fill="#b0bec5"/><rect x="324.36" y="201.71" width="5.11" height="14.45" transform="translate(57.12 -69.89) rotate(13.36)" fill="#cfd8dc"/><path d="M321.4,204.75a26,26,0,0,0,8.62,2.19l1.06-4.45-8.65-2.05Z" fill="#b0bec5"/><circle cx="333.14" cy="176.48" r="28.01" transform="translate(84.46 459.82) rotate(-76.64)" fill="#1ae5ff"/><circle cx="333.14" cy="176.48" r="20.9" transform="translate(84.46 459.82) rotate(-76.64)" fill="#fff"/><path d="M353.85,173.81a20.88,20.88,0,1,0-41.37,5.74,22.64,22.64,0,0,0,41.37-5.74Z" fill="url(#linear-gradient-12)"/><rect x="313.67" y="207.55" width="12.45" height="45.57" transform="translate(61.88 -67.68) rotate(13.36)" fill="url(#linear-gradient-13)"/><rect x="322.55" y="208.59" width="3.45" height="45.57" transform="translate(62.22 -68.65) rotate(13.36)" fill="#ff7d21"/><path d="M278.21,196.24l-6.14,1.19a1,1,0,0,1-1.1-1.27l1.42-9.13a.91.91,0,0,1,.7-.79h0a.91.91,0,0,1,.94.47l4.72,7.95A1,1,0,0,1,278.21,196.24Z" fill="#37474f"/><rect x="289.14" y="294.82" width="11.62" height="8.7" rx="0.67" ry="0.67" transform="translate(-51.45 61.46) rotate(-10.95)" fill="#7986cb"/><rect x="295.41" y="294.22" width="5.29" height="8.7" rx="0.45" ry="0.45" transform="translate(-51.27 62.02) rotate(-10.95)" fill="#3949ab"/><rect x="291.96" y="294.82" width="5.99" height="8.7" rx="0.48" ry="0.48" transform="translate(-51.45 61.47) rotate(-10.95)" fill="#5c6bc0"/><rect x="279.33" y="199.2" width="11.62" height="98.49" transform="translate(-42 58.68) rotate(-10.95)" fill="#eceff1"/><rect x="287.35" y="198.43" width="3.53" height="98.49" transform="translate(-41.78 59.41) rotate(-10.95)" fill="#b0bec5"/><rect x="282.17" y="199.2" width="5.93" height="98.49" transform="translate(-41.99 58.67) rotate(-10.95)" fill="#cfd8dc"/><rect x="279.33" y="202.25" width="11.62" height="92.39" transform="translate(-41.99 58.67) rotate(-10.95)" fill="url(#linear-gradient-14)"/><rect x="286.52" y="201.56" width="4.36" height="92.39" transform="translate(-41.8 59.33) rotate(-10.95)" fill="url(#linear-gradient-15)"/><rect x="282.16" y="202.25" width="5.95" height="92.39" transform="matrix(0.98, -0.19, 0.19, 0.98, -42, 58.68)" fill="url(#linear-gradient-16)"/><polygon points="277.2 191.65 271.32 192.79 270.08 201.2 281.49 199 277.2 191.65" fill="#ffcc80"/><polygon points="275.79 200.1 281.49 199 277.2 191.65 274.26 192.22 275.79 200.1" fill="#ffa000"/><polygon points="275.76 191.93 272.76 192.51 272.87 200.66 278.7 199.54 275.76 191.93" fill="#ffb300"/><path d="M278.24,293.5l6.17,1a1,1,0,0,1,.59,1.57l-4.5,8.07a.91.91,0,0,1-.93.5h0a.91.91,0,0,1-.72-.77l-1.66-9.09A1,1,0,0,1,278.24,293.5Z" fill="#37474f"/><rect x="292.5" y="186.81" width="11.62" height="8.7" rx="0.67" ry="0.67" transform="translate(561.44 428.44) rotate(-170.61)" fill="url(#linear-gradient-17)"/><rect x="292.54" y="186.29" width="5.29" height="8.7" rx="0.45" ry="0.45" transform="translate(555.32 426.9) rotate(-170.61)" fill="url(#linear-gradient-18)"/><rect x="295.32" y="186.81" width="5.99" height="8.7" rx="0.48" ry="0.48" transform="translate(561.45 428.42) rotate(-170.61)" fill="url(#linear-gradient-19)"/><rect x="284.07" y="192.89" width="11.62" height="98.49" transform="translate(536.38 528.32) rotate(-170.61)" fill="#eceff1"/><rect x="284.13" y="192.23" width="3.53" height="98.49" transform="translate(528.57 526.35) rotate(-170.61)" fill="#b0bec5"/><rect x="286.92" y="192.89" width="5.93" height="98.49" transform="translate(536.38 528.32) rotate(-170.61)" fill="#cfd8dc"/><rect x="284.07" y="195.94" width="11.62" height="92.39" transform="translate(536.38 528.32) rotate(-170.61)" fill="url(#linear-gradient-20)"/><rect x="284.12" y="195.35" width="4.36" height="92.39" transform="translate(529.36 526.56) rotate(-170.61)" fill="url(#linear-gradient-21)"/><rect x="286.91" y="195.94" width="5.95" height="92.39" transform="translate(536.39 528.32) rotate(-170.61)" fill="url(#linear-gradient-22)"/><polygon points="277.59 298.15 283.49 299.13 287.58 291.67 276.12 289.77 277.59 298.15" fill="#ffcc80"/><polygon points="281.85 290.72 276.12 289.77 277.59 298.15 280.54 298.64 281.85 290.72" fill="#ffa000"/><polygon points="279.03 298.39 282.05 298.89 284.78 291.2 278.92 290.24 279.03 298.39" fill="#ffb300"/><path d="M327.2,308.58H279.14a9.14,9.14,0,0,1-9.13-8.72L266,212h74.36l-4,87.88A9.14,9.14,0,0,1,327.2,308.58Z" fill="url(#linear-gradient-23)"/><path d="M293,283.82a9.14,9.14,0,0,0,9.13,8.72h34.49L340.35,212h-50.6Z" fill="url(#linear-gradient-24)"/><path d="M73.53,219.29s4.62-2.5,5-1.5-5,3.63-5.62,3.63-.25-1.37-.25-1.37Z" fill="#ffb300"/><path d="M59.89,229.51s4.93,1.57,4.77,2.2-6.33-.08-6.41-.87S58.9,229,59.39,229A.51.51,0,0,1,59.89,229.51Z" fill="#ffb300"/><path d="M49,200.2s4.33,11.5,6.67,14.83S58,229.7,58,229.7h2.83s1-12-.33-16.5-4.17-13-4.17-13Z" fill="#424242"/><path d="M53.85,205.89A58.48,58.48,0,0,1,60.54,209c3.45,1.87,5,2.61,5.32,3.1s4.73,7.49,5.86,8.16a1.64,1.64,0,0,0,2.37-1.56c-.12-1.13-3.84-8.81-5.28-10s-8.5-7.43-11.28-7.78S52.64,204.61,53.85,205.89Z" fill="#424242"/><path d="M53.46,183.09a6.81,6.81,0,0,1,3.91,3.52c1.25,2.73,3.44,11.25,2.89,15.23-.55,2.42-8.75,1.8-11.09-.47-.31-1.8-1.64-8.51-.23-15.23C49.24,184.5,51,183.09,53.46,183.09Z" fill="#ff5345"/><path d="M51.74,175s2.38,2.42,2.15,4.92c-.35,2.07-1.21,2.23.08,3.59a2.11,2.11,0,0,1-2.81.47s.86-1-.62-1.87a7.7,7.7,0,0,1-3.12-4.69,2.38,2.38,0,0,1,2-3A2.16,2.16,0,0,1,51.74,175Z" fill="#ffcc80"/><path d="M51.63,188.22s-4.67,5.57-9.08,6.85c-2.81-.48,5.68-9.19,7.73-9.14S51.63,188.22,51.63,188.22Z" fill="#ff5345"/><path d="M49.69,197.56a1.13,1.13,0,0,0,1,.28,2.88,2.88,0,0,1,2,.25c.38.29-.8.27-.8.27s2,.29,2,.49a3.83,3.83,0,0,1-2.3.67c-.82-.08-1.25-.84-2.06-1Z" fill="#ffcc80"/><path d="M42.83,193.75s4.69,1.63,7.32,3.95l-.52,1a21.34,21.34,0,0,1-5.69-2C41.58,195.33,41.66,193.69,42.83,193.75Z" fill="#ff5345"/><path d="M69.66,192.59a1.88,1.88,0,0,0,1.13-.15c.43-.27,1.68-.85,1.82-.62s-.5.6-.5.6,1.09-.14,1.3.23-.64,1.78-1.32,1.7-1.49-.82-1.91-.9l-.63-.12Z" fill="#ffcc80"/><path d="M53.88,186.69s4.57,5.65,9,7c2.82-.43-5.52-9.29-7.57-9.27S53.88,186.69,53.88,186.69Z" fill="#ff5345"/><path d="M62,191.74s5-.34,8.28.77l-.09,1.12a21.34,21.34,0,0,1-6,.39C61.47,193.68,60.9,192.14,62,191.74Z" fill="#ff5345"/><path d="M52,177s1,1.58.76,1.87-1.35.47-1.41.23.88-.64.88-.64S51.4,176.62,52,177Z" fill="#ff8a65"/><path d="M47.68,174.83s2.71-3.77,4.23-2.51,2,2.25-.93,3.37-2.71,1.85-2,3.11,1.19,1.59.66,1.72-.78-1.92-1.44-1.78,1,1.87,1.11,1.87a3.23,3.23,0,0,1-2.71-2.13c-.53-2,.2-1.85.2-1.85S46,175.56,47.68,174.83Z" fill="#424242"/><path d="M172.36,254a2.71,2.71,0,0,1,3.82.1c1.81,1.91-.9,4.12,1.21,4.92s3.62.9,3,3.42-1.81,3.62-1.21,5.53-1.91,3.92-4.32,3-4.12.1-6.43,1.91-6.23-.7-5-3.82,3.72-2.71,3-5.83-2.71-5.83-.4-8.14S172.36,254,172.36,254Z" fill="#f76a1e"/><path d="M182.22,285.19s.51,6.12-1,8.41-14.28,4.21-15,3.06,3.06-2.17,5.86-3.19,5.48-3.31,4.84-7.65S182.22,285.19,182.22,285.19Z" fill="#ffa812"/><path d="M171.34,281a23.6,23.6,0,0,1,2.75,10c.41,4.94-6.18,15.11-5.63,17.31s8.1-7.28,9.75-12.64.55-12.5-.55-14.56S171.34,281,171.34,281Z" fill="#ffcc80"/><path d="M167,308.26s-.59.55-.59.89.68.85,1,1.66a11.43,11.43,0,0,0,2.8,3.74c1,.76,1.17.72,1.17.72l.45-.47s-3.19-4-3.31-4.16S167,308.26,167,308.26Z" fill="#f5f5f5"/><path d="M168.15,308.6c.3.89,1.51,2.08,2.29,1.51a5.26,5.26,0,0,1-.14-2.36s-.88-1.22-1.59-1.05A2.35,2.35,0,0,0,168.15,308.6Z" fill="#ffcc80"/><path d="M170.44,310.11c-.77.57-2-.62-2.29-1.51a2.07,2.07,0,0,1,.39-1.68,3.51,3.51,0,0,0-1.76,1.76c-.07.51.55,1,1.27,2.32s3.2,4.13,3.66,4a1.46,1.46,0,0,0,.55-.88C172.28,312.64,170.82,310.94,170.44,310.11Z" fill="#f76a1e"/><path d="M165.35,295.82s-.77.25-.92.56.26,1.06.23,1.93a11.43,11.43,0,0,0,1,4.57c.6,1.12.76,1.15.76,1.15l.6-.24s-1.19-5-1.25-5.17S165.35,295.82,165.35,295.82Z" fill="#f5f5f5"/><path d="M166.21,296.59c-.11.93.49,2.53,1.44,2.33a5.26,5.26,0,0,1,.87-2.2s-.28-1.47-1-1.62C167.51,295.1,166.31,295.65,166.21,296.59Z" fill="#ffa812"/><path d="M167.64,298.92c-.94.19-1.54-1.4-1.44-2.33a2.07,2.07,0,0,1,1.07-1.36,3.51,3.51,0,0,0-2.33.85c-.27.43.1,1.09.17,2.64,0,1.38,1.16,5.1,1.65,5.13a1.46,1.46,0,0,0,.87-.57C168.25,302,167.64,299.83,167.64,298.92Z" fill="#f76a1e"/><path d="M170.38,276.61s-1.34,1.07-1.21,4-2.81,7-5.09,8.17.94,3.08,2.95,2.81,2.81.13,5.09,2.68,4.42-1.47,7.23,0a5.8,5.8,0,0,0,7.37-1.34c1.61-2,4-1.74,4.29-3.48s-4.55-4-6.56-7.37-2-5.36-3.22-6S170.38,276.61,170.38,276.61Z" fill="#f76a1e"/><path d="M175.48,264.41s4.26-2.79,7.89-3.26c2.74.07,1.24,2.65-.76,4.12C178.95,267.95,173.8,267,175.48,264.41Z" fill="#1e60cf"/><path d="M174.86,262.59s2.46.26,3.23,1.27.76,2,1.61,3.31-.42,2.38.17,4.25.34,2,1.44,3.65,0,2.46-1.36,3.31-7.82,1.1-9.35-.76-.25-2.29.17-3.74.25-4.16,0-6.63.51-3.65,2.29-4.33S174.86,262.59,174.86,262.59Z" fill="#1e60cf"/><path d="M159.27,270.47a1.25,1.25,0,0,1-1.1-.31,3.17,3.17,0,0,0-2-.91c-.52.06.59.72.59.72s-2.06-.89-2.17-.7,1,1.56,1.77,2,1.66-.07,2.53.21Z" fill="#ffcc80"/><path d="M191.19,258s.7-.21.83-.79a3.17,3.17,0,0,1,1.35-1.74c.49-.19-.18.91-.18.91s1.41-1.75,1.59-1.63a4.22,4.22,0,0,1-.65,2.56c-.53.73-1.5.71-2.14,1.37Z" fill="#ffcc80"/><path d="M173.7,253.86s2.62,2.67,2.37,5.42c-.39,2.28-1.33,2.45.09,4a2.33,2.33,0,0,1-3.1.52s.95-1.12-.69-2.06a8.47,8.47,0,0,1-3.44-5.16,2.63,2.63,0,0,1,2.15-3.27A2.38,2.38,0,0,1,173.7,253.86Z" fill="#ffcc80"/><path d="M174,256.07s1.1,1.74.84,2.06-1.48.52-1.55.26,1-.71,1-.71S173.33,255.68,174,256.07Z" fill="#ff8a65"/><path d="M171.38,264.12s-4.25,2.8-6.12,5.95c-1,2.55,1.94,2.19,4.08.93C173.25,268.71,174.44,263.61,171.38,264.12Z" fill="#1e60cf"/><path d="M166.11,270.37c-.29,0-6.27-.39-7.62.19-1.06.58,1.16,1.93,3.28,2.22s6.56-.39,7.71-2S166.11,270.37,166.11,270.37Z" fill="#1e60cf"/><path d="M183.82,261c.26-.13,6.26-3.06,7.73-3.13,1.21.05-.16,2.29-2,3.43-5.56,3.52-6,3.27-7.77,2.31S183.82,261,183.82,261Z" fill="#1e60cf"/><path d="M169.35,252.63s3.62-1.21,4.52.8-3.32,1.81-3.32,3.32,2,1.21,1,2.61,1.62,1.23.61,2.52-4.83-1.92-4.63-4.43S167.44,253.53,169.35,252.63Z" fill="#f76a1e"/><path d="M230.92,224.71a21.34,21.34,0,0,0-1.61-5.81l-.16,0c-.19-.72.1-1.44-.27-2.1s-1.7-1.61-1.86-1.51.75,1.93.75,1.93-.65-1-.68-.5a2.88,2.88,0,0,0,.92,1.77.86.86,0,0,1,.31.51l-.12,0a22.78,22.78,0,0,0,.56,6.69,26.29,26.29,0,0,0-7.91-2.35,7,7,0,0,0-1.55-.87c-.88-1.1-.15-1.39.17-3.29.23-2.5-2.15-4.92-2.15-4.92l-.09-.1a.77.77,0,0,0,.1-1c-1.75-1.17-5,1.08-5,1.08-2.33,1.92,1.17,6.42,2.42,6.33a.33.33,0,0,0,.26-.15,5.38,5.38,0,0,0,1.11.94c.85.49.93,1,.84,1.41a4.47,4.47,0,0,0-1.22.71,24.64,24.64,0,0,0-8-2.8,24.12,24.12,0,0,0-3.61-6.42l-.08,0a1.23,1.23,0,0,1-.06-.54c.08-.51.13-1.88-.14-1.92s-.36.7-.36.7-.3-1.06-.72-1.1-1.39,1.28-1,1.88,1.31,1,1.56,1.39l-.15.08a21.34,21.34,0,0,0,2,5.69,5.56,5.56,0,0,0,.91,1.21c2.1,2.4,6.06,4.08,8.26,4.87a42.24,42.24,0,0,0,.44,14.11s-3.59,14.56-4.52,19.32-2.51,14.41-2.25,15.2a.59.59,0,0,0,.1.16c-.9.39-4.55,2-4.48,2.91s2.41.89,4,.23a7.15,7.15,0,0,0,2-1.33.53.53,0,0,0,.81-.05c.36-.49.81-1.47.29-1.75a1,1,0,0,0-.21-.07c.7-.62,3.69-13.61,4.61-15.84.16-.39.45-1.16.82-2.16.45,3.09,3.6,11.16,4.42,12.11a1.79,1.79,0,0,0,1.12.57c-.24.68-1.68,4.79-1,5.36s2.29-1.15,2.88-2.75a7.15,7.15,0,0,0,.42-2.39s.63,0,.52-.63a2.45,2.45,0,0,0-.64-1.3c0-2.26-2.19-10.86-2.38-11.46s.46-2.64,1.64-7.19a71.06,71.06,0,0,1,2.61-8,1.2,1.2,0,0,0,.27-.5c.46-3.39-1-10-2.28-13.63,3.15.61,6.62.75,6.88-.29A3.82,3.82,0,0,0,230.92,224.71Z" fill="#1ab8ff"/><path d="M206.28,272s-4.75,2-4.68,3,2.41.89,4,.23a7.15,7.15,0,0,0,2-1.33.53.53,0,0,0,.81-.05c.36-.49.81-1.47.29-1.75A7.57,7.57,0,0,0,206.28,272Z" fill="#fff"/><path d="M212.74,237.45s-3.59,14.56-4.52,19.32S205.71,271.18,206,272s1.85.53,2.51.13,3.7-13.61,4.63-15.86,5.95-16.39,5.95-17.58S214.48,236.24,212.74,237.45Z" fill="#424242"/><path d="M219.51,266.67s-1.79,4.84-1,5.47,2.29-1.15,2.88-2.75a7.15,7.15,0,0,0,.42-2.39s.63,0,.52-.63-.52-1.59-1.08-1.41S219.51,266.67,219.51,266.67Z" fill="#fff"/><path d="M223.72,238a70,70,0,0,0-2.77,8.38c-1.18,4.55-1.84,6.55-1.64,7.19s2.69,10.27,2.35,11.8a2,2,0,0,1-3.31.8c-.89-1-4.57-10.56-4.47-12.84s.44-13.51,2.41-16.24S223.59,235.93,223.72,238Z" fill="#616161"/><path d="M217,219.17a6.81,6.81,0,0,1,3.91,3.52c1.25,2.73,3.44,11.25,2.89,15.23-.55,2.42-8.75,1.8-11.09-.47-.31-1.8-1.64-8.51-.23-15.23C212.82,220.58,214.54,219.17,217,219.17Z" fill="#db4fff"/><path d="M215.32,211s2.38,2.42,2.15,4.92c-.35,2.07-1.21,2.23.08,3.59a2.11,2.11,0,0,1-2.81.47s.86-1-.62-1.87a7.7,7.7,0,0,1-3.12-4.69,2.38,2.38,0,0,1,2-3A2.16,2.16,0,0,1,215.32,211Z" fill="#ffcc80"/><path d="M217.57,220s7.24.66,10.8,3.56c1.21,2.58-10.79.57-11.91-1.14S217.57,220,217.57,220Z" fill="#db4fff"/><path d="M226.35,216.24a1.13,1.13,0,0,0-.34-1,2.88,2.88,0,0,1-.92-1.77c0-.48.68.5.68.5s-.91-1.83-.75-1.93,1.46.79,1.86,1.51,0,1.51.32,2.29Z" fill="#ffcc80"/><path d="M227.13,224s-1.33-4.79-.93-8.26l1.11-.14a21.34,21.34,0,0,1,1.61,5.81C229.14,224.17,227.75,225,227.13,224Z" fill="#db4fff"/><path d="M202.29,211.64a1.88,1.88,0,0,1-.3-1.1c.08-.51.13-1.88-.14-1.92s-.36.7-.36.7-.3-1.06-.72-1.1-1.39,1.28-1,1.88,1.34,1,1.58,1.4l.36.53Z" fill="#ffcc80"/><path d="M213.89,223.86s-7-2-10-5.51c-.7-2.76,10.71,1.45,11.49,3.34S213.89,223.86,213.89,223.86Z" fill="#db4fff"/><path d="M206.07,218.37s-1.63-4.69-3.94-7.32l-1,.52a21.34,21.34,0,0,0,2,5.69C204.49,219.62,206.13,219.54,206.07,218.37Z" fill="#db4fff"/><path d="M215.63,213.06s1,1.58.76,1.87-1.35.47-1.41.23.88-.64.88-.64S215,212.71,215.63,213.06Z" fill="#ff8a65"/><path d="M210.33,211s3.25-2.25,5-1.08c1,1.5-3.58,2.67-3.58,2.67s2.25,4.67,1,4.75S208,213,210.33,211Z" fill="#424242"/><rect x="192.83" y="123.62" width="3" height="191" fill="#ffb300"/><rect x="210.83" y="123.62" width="3" height="191" fill="#ffb300"/><rect x="194.49" y="131.95" width="17" height="2.67" fill="#ffb300"/><rect x="194.49" y="142.95" width="17" height="2.67" fill="#ffb300"/><rect x="194.49" y="153.95" width="17" height="2.67" fill="#ffb300"/><rect x="194.49" y="164.95" width="17" height="2.67" fill="#ffb300"/><rect x="194.49" y="175.95" width="17" height="2.67" fill="#ffb300"/><rect x="194.49" y="186.95" width="17" height="2.67" fill="#ffb300"/><rect x="194.49" y="197.95" width="17" height="2.67" fill="#ffb300"/><rect x="194.49" y="208.95" width="17" height="2.67" fill="#ffb300"/><rect x="194.49" y="219.95" width="17" height="2.67" fill="#ffb300"/><rect x="194.49" y="230.95" width="17" height="2.67" fill="#ffb300"/><rect x="194.49" y="241.95" width="17" height="2.67" fill="#ffb300"/><rect x="194.49" y="252.95" width="17" height="2.67" fill="#ffb300"/><rect x="194.49" y="263.95" width="17" height="2.67" fill="#ffb300"/><rect x="194.49" y="274.95" width="17" height="2.67" fill="#ffb300"/><rect x="194.49" y="285.95" width="17" height="2.67" fill="#ffb300"/><rect x="194.49" y="296.95" width="17" height="2.67" fill="#ffb300"/><path d="M255.81,55.67l.64-2.39a.69.69,0,0,1,1.34,0l.64,2.39a.69.69,0,0,0,.49.49l2.39.64a.69.69,0,0,1,0,1.34l-2.39.64a.69.69,0,0,0-.49.49l-.64,2.39a.69.69,0,0,1-1.34,0l-.64-2.39a.69.69,0,0,0-.49-.49l-2.39-.64a.69.69,0,0,1,0-1.34l2.39-.64A.69.69,0,0,0,255.81,55.67Z" fill="#fec800"/><path d="M170.58,84.89l.44-1.62a.47.47,0,0,1,.91,0l.44,1.62a.47.47,0,0,0,.33.33l1.62.44a.47.47,0,0,1,0,.91l-1.62.44a.47.47,0,0,0-.33.33L171.93,89a.47.47,0,0,1-.91,0l-.44-1.62a.47.47,0,0,0-.33-.33l-1.62-.44a.47.47,0,0,1,0-.91l1.62-.44A.47.47,0,0,0,170.58,84.89Z" fill="#fec800"/><path d="M145.88,27.79l.44-1.62a.47.47,0,0,1,.91,0l.44,1.62a.47.47,0,0,0,.33.33l1.62.44a.47.47,0,0,1,0,.91L148,29.9a.47.47,0,0,0-.33.33l-.44,1.62a.47.47,0,0,1-.91,0l-.44-1.62a.47.47,0,0,0-.33-.33l-1.62-.44a.47.47,0,0,1,0-.91l1.62-.44A.47.47,0,0,0,145.88,27.79Z" fill="#fec800"/><path d="M201.93,1.33l2.49,5.06a2.38,2.38,0,0,0,1.79,1.3l5.58.81a2.38,2.38,0,0,1,1.31,4.05l-4,3.93a2.38,2.38,0,0,0-.68,2.1l1,5.56a2.38,2.38,0,0,1-3.45,2.5l-5-2.63a2.38,2.38,0,0,0-2.21,0l-5,2.62a2.38,2.38,0,0,1-3.45-2.51l1-5.56a2.38,2.38,0,0,0-.68-2.1l-4-3.94a2.38,2.38,0,0,1,1.32-4.05l5.58-.81a2.38,2.38,0,0,0,1.79-1.3l2.5-5.05A2.38,2.38,0,0,1,201.93,1.33Z" fill="#fec800"/><path d="M211.79,8.5l-5.58-.81a2.38,2.38,0,0,1-1.79-1.3l-2.49-5.06A2.35,2.35,0,0,0,199.77,0V23.75a2.37,2.37,0,0,1,1.12.27l5,2.63a2.38,2.38,0,0,0,3.45-2.5l-1-5.56a2.38,2.38,0,0,1,.68-2.1l4-3.93A2.38,2.38,0,0,0,211.79,8.5Z" fill="#fe9300"/></g></g></g></svg>