<svg xmlns="http://www.w3.org/2000/svg" viewBox="0 0 244.79 229.54"><title>sadBook</title><g id="Layer_2" data-name="Layer 2"><g id="OBJECTS"><ellipse cx="122.39" cy="214.96" rx="122.39" ry="14.58" fill="#f6f6f6"/><path d="M202.17,198.93m-17.86,17.85,17.86-17.85V3.4H50.87V216.78H184.31m-122.6-197c-5.47,0-5.47-8.5,0-8.5S67.17,19.79,61.71,19.79Zm14.31,0c-5.47,0-5.47-8.5,0-8.5S81.48,19.79,76,19.79Zm14.52.11c-5.47,0-5.47-8.5,0-8.5S96,19.89,90.53,19.89Zm14.41-.21c-5.47,0-5.47-8.5,0-8.5S110.42,19.68,104.95,19.68Zm14.31.11c-5.47,0-5.47-8.5,0-8.5S124.72,19.79,119.26,19.79Zm14.41-.11c-5.47,0-5.47-8.5,0-8.5S139.14,19.68,133.67,19.68Zm14.41.11c-5.47,0-5.47-8.5,0-8.5S153.55,19.79,148.08,19.79Zm14.41-.11c-5.47,0-5.47-8.5,0-8.5S168,19.68,162.5,19.68Zm14.52.11c-5.47,0-5.47-8.5,0-8.5S182.49,19.79,177,19.79Zm14.31,0c-5.47,0-5.47-8.5,0-8.5S196.79,19.79,191.33,19.79Z" fill="#dadada"/><path d="M197.92,195.53m-17.86,17.85,17.86-17.85V0H46.62V213.38H180.06m-122.6-197c-5.47,0-5.47-8.5,0-8.5S62.92,16.39,57.46,16.39Zm14.31,0c-5.47,0-5.47-8.5,0-8.5S77.23,16.39,71.76,16.39Zm14.52.11c-5.47,0-5.47-8.5,0-8.5S91.75,16.49,86.28,16.49Zm14.41-.21c-5.47,0-5.47-8.5,0-8.5S106.17,16.28,100.7,16.28Zm14.31.11c-5.47,0-5.47-8.5,0-8.5S120.47,16.39,115,16.39Zm14.41-.11c-5.47,0-5.47-8.5,0-8.5S134.89,16.28,129.42,16.28Zm14.41.11c-5.47,0-5.47-8.5,0-8.5S149.3,16.39,143.83,16.39Zm14.41-.11c-5.47,0-5.47-8.5,0-8.5S163.72,16.28,158.25,16.28Zm14.52.11c-5.47,0-5.47-8.5,0-8.5S178.24,16.39,172.77,16.39Zm14.31,0c-5.47,0-5.47-8.5,0-8.5S192.54,16.39,187.08,16.39Z" fill="#ededed"/><rect x="46.71" y="40.21" width="151.3" height="0.96" fill="#c6c6c6"/><rect x="46.71" y="51.71" width="151.3" height="0.96" fill="#c6c6c6"/><rect x="46.71" y="63.19" width="151.3" height="0.96" fill="#c6c6c6"/><rect x="46.71" y="74.68" width="151.3" height="0.96" fill="#c6c6c6"/><rect x="46.71" y="86.16" width="151.3" height="0.96" fill="#c6c6c6"/><rect x="46.71" y="97.65" width="151.3" height="0.96" fill="#c6c6c6"/><rect x="46.71" y="109.13" width="151.3" height="0.96" fill="#c6c6c6"/><rect x="46.71" y="120.62" width="151.3" height="0.96" fill="#c6c6c6"/><rect x="46.71" y="132.11" width="151.3" height="0.96" fill="#c6c6c6"/><rect x="46.71" y="143.59" width="151.3" height="0.96" fill="#c6c6c6"/><rect x="46.71" y="155.08" width="151.3" height="0.96" fill="#c6c6c6"/><rect x="46.71" y="166.57" width="151.3" height="0.96" fill="#c6c6c6"/><rect x="46.71" y="178.05" width="151.3" height="0.96" fill="#c6c6c6"/><rect x="46.71" y="189.54" width="151.3" height="0.96" fill="#c6c6c6"/><rect x="46.71" y="28.75" width="151.3" height="0.96" fill="#c6c6c6"/><polyline points="180.04 213.38 180.04 195.53 197.94 195.53" fill="#c6c6c6"/><path d="M99,87.89c8.86,0,8.88-13.77,0-13.77s-8.88,13.77,0,13.77Z" fill="#878787"/><path d="M100.79,80.89a1.72,1.72,0,0,0,0-3.44,1.72,1.72,0,0,0,0,3.44Z" fill="#fff"/><path d="M143.93,87.89c8.86,0,8.88-13.77,0-13.77s-8.88,13.77,0,13.77Z" fill="#878787"/><path d="M145.77,80.89a1.72,1.72,0,0,0,0-3.44,1.72,1.72,0,0,0,0,3.44Z" fill="#fff"/><path d="M80.59,107.87c12.23,0,12.25-19,0-19s-12.25,19,0,19Z" fill="#f7b7d2"/><path d="M164.13,107.87c12.23,0,12.25-19,0-19s-12.25,19,0,19Z" fill="#f7b7d2"/><path d="M135.58,105.42c0-6.08-5.92-11-13.22-11h0c-7.3,0-13.22,4.93-13.22,11" fill="none" stroke="#878787" stroke-linecap="round" stroke-linejoin="round" stroke-width="2.6"/><path d="M156.17,32.57a4.81,4.81,0,0,1,.39.44,4.58,4.58,0,0,1,.65,1.41,6.09,6.09,0,0,1,.19,2.15,7.2,7.2,0,0,1-.62,2.39,6.85,6.85,0,0,1-.64,1.11,6.43,6.43,0,0,1-.81,1,5.87,5.87,0,0,1-1,.72,4.19,4.19,0,0,1-1,.45,3.18,3.18,0,0,1-.89.18,2.18,2.18,0,0,1-.69,0,3.2,3.2,0,0,1-.58-.12s.15-.19.38-.44a4.83,4.83,0,0,0,.38-.46,5.68,5.68,0,0,0,.42-.59,7.15,7.15,0,0,0,.42-.67c.15-.21.26-.5.42-.73.26-.53.55-1.06.8-1.64.52-1.14,1-2.34,1.42-3.33.09-.24.21-.49.28-.69s.17-.39.21-.57A4.89,4.89,0,0,1,156.17,32.57Z" fill="#c6c6c6"/><path d="M159.72,31.58a5.07,5.07,0,0,1,.27.56,2.35,2.35,0,0,0,.32.53c.1.16.29.36.45.56s.38.4.55.6.41.41.66.61.23.21.35.31.26.2.38.31.52.41.77.61.53.4.8.58.54.37.8.55l.78.5c.25.13.5.32.74.42a7.44,7.44,0,0,0,.68.34c.21.08.42.2.58.23l.57.19a3.23,3.23,0,0,1-.49.4,2.48,2.48,0,0,1-.65.32,3.61,3.61,0,0,1-.92.24,5.35,5.35,0,0,1-1.12,0,6.91,6.91,0,0,1-1.21-.23,6.34,6.34,0,0,1-1.22-.48,6.87,6.87,0,0,1-2.14-1.63,5.75,5.75,0,0,1-.79-1.07,6.3,6.3,0,0,1-.53-1.14,5.22,5.22,0,0,1-.22-1.13,3.6,3.6,0,0,1,.05-1,1.87,1.87,0,0,1,.22-.7A5.11,5.11,0,0,1,159.72,31.58Z" fill="#c6c6c6"/><path d="M152.22,44.62a4.61,4.61,0,0,1,.45-.35,2.12,2.12,0,0,1,.6-.28,4.27,4.27,0,0,1,.85-.21,5.62,5.62,0,0,1,2.08.11,6,6,0,0,1,1.1.35,8.11,8.11,0,0,1,1.06.53,8.23,8.23,0,0,1,.95.71,6,6,0,0,1,.81.82,5.75,5.75,0,0,1,1,1.79,4.08,4.08,0,0,1,.2.83,2.84,2.84,0,0,1,0,.66,2.93,2.93,0,0,1-.09.57s-.19-.13-.46-.32-.32-.2-.48-.32-.4-.23-.6-.37c-.85-.53-1.94-1.15-3-1.81l-1.55-1-.72-.46c-.23-.13-.46-.3-.67-.41s-.42-.27-.59-.36a4.17,4.17,0,0,0-.51-.27A4.51,4.51,0,0,1,152.22,44.62Z" fill="#c6c6c6"/><path d="M168.81,41.66a3.79,3.79,0,0,1-.28.43,4.73,4.73,0,0,1-.34.43,4.25,4.25,0,0,0-.3.54c-.1.2-.19.31-.3.54a6.27,6.27,0,0,1-.37.62c-.15.19-.24.44-.39.64s-.3.4-.42.63a6.64,6.64,0,0,1-.44.62c-.14.21-.26.42-.42.61a6,6,0,0,0-.43.58c-.13.19-.27.37-.42.55a4.24,4.24,0,0,0-.37.5c-.1.16-.22.3-.31.42s-.33.4-.33.4a2.55,2.55,0,0,1-.27-.42,3.81,3.81,0,0,1-.24-.53,2.35,2.35,0,0,1-.19-.72,7.68,7.68,0,0,1,0-.86,3.24,3.24,0,0,1,.14-.94,6.46,6.46,0,0,1,.31-1c.15-.31.33-.61.51-.9a6.34,6.34,0,0,1,1.42-1.47,8.53,8.53,0,0,1,.83-.48,4.07,4.07,0,0,1,.88-.31,2.68,2.68,0,0,1,.74-.1,4.71,4.71,0,0,1,.54.08A3.76,3.76,0,0,1,168.81,41.66Z" fill="#c6c6c6"/></g></g></svg>